<svg width="226" height="226" viewBox="0 0 226 226" fill="none" xmlns="http://www.w3.org/2000/svg">
<path d="M39.1688 144.159C40.1491 144.613 41.1545 145.014 42.1802 145.361C52.4148 148.821 62.9283 151.45 73.6121 153.221C97.0242 156.995 126.207 155.357 148.976 148.77C171.745 142.183 190.7 125.79 205.721 107.938C218.033 93.2942 226.172 74.8764 225.997 55.9824C225.823 37.0884 216.596 17.9451 200.294 7.60571C183.993 -2.7337 160.733 -2.84052 145.717 9.19023C138.096 15.2924 133.019 23.7713 127.354 31.6138C121.69 39.4563 114.794 47.1385 105.448 50.2497C88.7657 55.8044 71.2663 45.1979 53.7027 43.6579C31.2867 41.6951 8.5265 56.7524 2.24656 77.7072C-4.03339 98.6619 2.85711 126.667 22.863 136.637L39.1688 144.159Z" fill="#FAFAFA"/>
<path d="M160.978 141.718C161.807 137.379 164.38 133.401 167.993 130.861" stroke="#04D361" stroke-width="0.779" stroke-miterlimit="10"/>
<path d="M160.866 142.938C161.022 139.315 162.424 130.594 165.738 125.134" stroke="#04D361" stroke-width="0.779" stroke-miterlimit="10"/>
<path d="M160.916 142.49C161.489 136.028 161.439 128.888 160.43 122.476" stroke="#04D361" stroke-width="0.779" stroke-miterlimit="10"/>
<path d="M168.658 129.253L168.658 129.253C168.626 129.311 168.593 129.369 168.56 129.426C168.194 130.072 167.825 130.722 167.398 131.351C167.468 131.323 167.54 131.294 167.614 131.264C167.791 131.192 167.976 131.116 168.15 131.052C168.408 130.956 168.684 130.866 168.948 130.827L168.948 130.827C170.111 130.657 171.293 130.704 172.424 130.851L172.425 130.851C173.305 130.966 174.185 131.14 175.045 131.311C175.324 131.366 175.6 131.421 175.873 131.473C177.005 131.689 178.109 131.865 179.219 131.88L179.22 131.88C179.845 131.889 180.501 131.807 181.049 131.597C181.594 131.387 181.994 131.067 182.194 130.615L182.195 130.613C182.525 129.876 182.19 128.865 181.46 128.258L181.458 128.257C180.735 127.652 179.733 127.403 178.666 127.3L178.666 127.3C178.278 127.262 177.892 127.243 177.492 127.223C177.343 127.215 177.193 127.208 177.04 127.199C176.485 127.167 175.91 127.123 175.338 127.013L175.336 127.013C174.995 126.947 174.659 126.86 174.337 126.774C174.286 126.76 174.235 126.746 174.184 126.733C173.913 126.66 173.653 126.59 173.393 126.53C172.776 126.39 172.217 126.323 171.677 126.428L168.658 129.253ZM168.658 129.253L168.659 129.251M168.658 129.253L168.659 129.251M168.659 129.251C169.425 127.89 170.38 126.68 171.677 126.428L168.659 129.251Z" fill="#04D361" stroke="#04D361"/>
<path d="M166.451 124.523C166.158 124.854 165.875 125.166 165.59 125.441C165.74 124.914 165.992 124.25 166.281 123.56C166.738 122.468 167.265 121.364 167.589 120.687C167.694 120.467 167.778 120.292 167.83 120.177C168.89 117.882 170.506 115.77 172.762 115.14L172.762 115.14C173.721 114.872 174.725 114.881 175.793 114.976C176.15 115.007 176.523 115.05 176.905 115.094C177.624 115.176 178.372 115.262 179.092 115.282L179.094 115.282C179.441 115.291 179.796 115.285 180.14 115.28C180.305 115.277 180.468 115.274 180.626 115.273C181.123 115.27 181.597 115.283 182.06 115.352C182.985 115.49 183.831 115.9 184.24 116.588L184.24 116.589C184.552 117.112 184.575 117.761 184.352 118.402C184.129 119.044 183.671 119.633 183.1 119.994C181.911 120.746 180.368 120.807 178.819 120.635C178.367 120.585 177.94 120.522 177.504 120.458C177.169 120.408 176.829 120.358 176.468 120.312C175.67 120.211 174.844 120.144 174.003 120.21C171.861 120.376 169.881 121.386 168.255 122.683C167.655 123.16 167.117 123.77 166.615 124.338C166.56 124.4 166.506 124.462 166.451 124.523Z" fill="#04D361" stroke="#04D361"/>
<path d="M161.83 116.287L161.83 116.288C162.025 117.477 161.828 118.706 161.449 119.903C161.42 119.993 161.386 120.104 161.348 120.232C161.233 120.613 161.075 121.134 160.88 121.63C160.75 121.959 160.615 122.247 160.48 122.454C160.413 122.556 160.356 122.624 160.313 122.663C160.298 122.677 160.287 122.685 160.28 122.69C160.245 122.69 160.141 122.677 159.947 122.581C159.743 122.479 159.508 122.32 159.265 122.128C158.781 121.746 158.324 121.286 158.1 121.054C157.428 120.346 156.894 119.514 156.564 118.608L156.564 118.606C156.176 117.554 156.041 116.425 155.904 115.228C155.901 115.2 155.898 115.171 155.895 115.143C155.763 113.991 155.625 112.774 155.221 111.616L155.221 111.616C154.76 110.303 153.974 109.126 153.233 108.018C153.041 107.73 152.851 107.446 152.671 107.166C151.776 105.771 151.039 104.309 151.05 102.79C151.061 101.266 152.032 99.7735 153.366 99.5371L153.367 99.5369C154.252 99.3783 155.215 99.7484 156.029 100.365L156.03 100.365C157.178 101.23 158.017 102.496 158.376 103.894C158.592 104.741 158.634 105.627 158.677 106.572L158.679 106.616C158.72 107.531 158.763 108.502 158.998 109.448C159.289 110.636 159.866 111.725 160.408 112.748C160.45 112.827 160.492 112.906 160.534 112.985C161.123 114.1 161.646 115.149 161.83 116.287Z" fill="#04D361" stroke="#04D361"/>
<path d="M160.854 141.881C160.43 136.172 158.96 129.723 155.764 124.973" stroke="#04D361" stroke-width="0.779" stroke-miterlimit="10"/>
<path d="M154.844 120.732L154.845 120.734C155.298 121.995 155.578 123.318 155.814 124.66L155.814 124.662C155.827 124.737 155.851 124.836 155.872 124.927C155.88 124.961 155.888 124.993 155.895 125.023C155.924 125.15 155.949 125.275 155.963 125.392C155.974 125.491 155.975 125.565 155.969 125.616C155.905 125.604 155.815 125.572 155.703 125.514C155.46 125.39 155.218 125.201 155.096 125.093C154.876 124.892 154.68 124.658 154.478 124.397C154.408 124.307 154.335 124.209 154.259 124.108C154.126 123.931 153.986 123.744 153.847 123.574L153.847 123.573C151.959 121.257 148.987 120.153 146.142 119.746C144.717 119.543 143.287 119.489 141.874 119.467C141.499 119.461 141.126 119.457 140.755 119.453C139.719 119.442 138.695 119.432 137.67 119.375L137.67 119.375L137.667 119.375C137.025 119.343 136.492 119.273 136.107 119C135.615 118.648 135.39 117.907 135.55 117.21C135.71 116.522 136.189 115.899 136.803 115.373L136.803 115.373C138.152 114.216 139.953 113.626 141.78 113.507C143.608 113.387 145.46 113.715 147.28 114.206L147.28 114.206C149.035 114.68 150.724 115.311 152.047 116.422C153.354 117.524 154.253 119.068 154.844 120.732ZM155.957 125.671C155.957 125.671 155.957 125.671 155.958 125.67L155.957 125.671ZM156.023 125.622C156.024 125.622 156.025 125.622 156.025 125.622L156.023 125.622Z" fill="#04D361" stroke="#04D361"/>
<path d="M160.736 142.49C160.486 137.51 158.244 132.654 154.618 129.23" stroke="#04D361" stroke-width="0.779" stroke-miterlimit="10"/>
<path d="M155.241 129.38C155.129 129.161 155.019 128.921 154.918 128.702C154.786 128.415 154.669 128.162 154.587 128.036C154.194 127.438 153.789 126.828 153.16 126.473C153.067 126.417 152.973 126.368 152.88 126.318L155.241 129.38ZM155.241 129.38C155.03 129.314 154.816 129.256 154.6 129.205M155.241 129.38L154.6 129.205M154.6 129.205C152.983 128.825 151.249 128.841 149.739 128.855L149.705 128.856M154.6 129.205L144.665 124.792M154.6 129.205C154.626 129.26 154.652 129.316 154.678 129.37C154.747 129.513 154.821 129.66 154.897 129.798C153.239 129.324 151.384 129.34 149.709 129.356M154.6 129.205L137.997 129.212M149.705 128.856C147.466 128.875 145.226 129.29 143.132 130.097L143.132 130.097L143.13 130.097C142.847 130.208 142.573 130.321 142.305 130.432C141.299 130.848 140.378 131.229 139.379 131.284M149.705 128.856L149.704 128.856L149.709 129.356M149.705 128.856L149.709 129.356M139.379 131.284C139.056 131.3 138.718 131.253 138.452 131.14C138.19 131.029 138.041 130.877 137.983 130.694M139.379 131.284C139.379 131.284 139.378 131.284 139.378 131.284L139.405 131.783M139.379 131.284C139.38 131.284 139.38 131.284 139.381 131.284L139.405 131.783M137.983 130.694C137.888 130.384 138.048 129.978 138.397 129.513L138.397 129.513L138.398 129.511C139.081 128.593 139.965 127.838 140.894 127.047M137.983 130.694C137.982 130.694 137.982 130.693 137.982 130.693L137.505 130.843M137.983 130.694C137.983 130.695 137.983 130.696 137.983 130.696L137.505 130.843M140.894 127.047C142.108 126.017 143.276 125.062 144.665 124.792M140.894 127.047C140.894 127.047 140.894 127.047 140.894 127.047L140.57 126.666M140.894 127.047C140.894 127.048 140.894 127.048 140.894 127.048L140.57 126.666M144.665 124.792L144.57 124.301C143.031 124.6 141.766 125.652 140.57 126.666M144.665 124.792L137.997 129.212M140.57 126.666C139.648 127.451 138.72 128.241 137.997 129.212M137.997 129.212C137.642 129.686 137.331 130.277 137.505 130.843M137.505 130.843C137.736 131.572 138.645 131.821 139.405 131.783M139.405 131.783C140.498 131.724 141.52 131.3 142.537 130.878C142.795 130.771 143.053 130.664 143.311 130.563C145.348 129.779 147.529 129.374 149.709 129.356M144.665 124.792C145.913 124.55 147.224 124.895 148.602 125.28L144.665 124.792Z" fill="#04D361" stroke="#04D361"/>
<path d="M51.5187 138.146C52.9532 136.656 53.9937 134.604 55.7393 133.635C57.742 132.531 60.121 133.141 62.347 133.507C64.5669 133.877 67.159 133.82 68.5849 131.868C69.3674 130.798 69.6281 129.35 70.2581 128.152C70.9458 126.838 72.0363 125.885 72.8953 124.712C73.7491 123.538 74.383 121.928 73.9132 120.473C73.4307 119 71.9314 118.211 70.571 118.289C69.2105 118.367 67.9639 119.122 66.8096 119.925C65.6553 120.728 64.508 121.612 63.1893 121.994C61.0099 122.627 58.717 121.799 56.5267 121.111C54.3354 120.428 51.9092 119.905 49.9078 121.062C48.2602 122.016 47.239 123.929 46.2976 125.75C44.9523 128.358 43.5883 130.952 42.2617 133.574C41.4467 135.189 40.0079 137.606 41.3468 139.394C43.6902 142.552 49.4229 140.32 51.5187 138.146Z" fill="#04D361"/>
<path d="M42.2018 139.746C47.4214 131.374 56.2987 125.41 65.8252 124.245" stroke="white" stroke-width="0.7781" stroke-miterlimit="10" stroke-linecap="round" stroke-linejoin="round"/>
<path d="M38.6133 130.991C38.8042 129.187 39.4193 127.382 39.2083 125.602C38.8282 122.436 35.9472 120.312 35.6926 117.125C35.3889 113.315 38.9348 110.104 39.0992 106.255C39.1674 104.635 38.6159 103.102 38.3869 101.514C38.1578 99.927 38.3599 98.0288 39.5272 97.0319C40.7507 95.9867 42.5456 96.4515 43.5716 97.6391C44.5925 98.8257 45.0033 100.525 45.2902 102.175C45.5719 103.825 45.7784 105.541 46.492 106.997C47.7954 109.648 50.7046 111.221 51.134 114.258C51.5749 117.35 49.2203 120.119 48.3552 123.162C47.6994 125.467 47.9103 127.91 48.0642 130.284C48.2182 132.659 48.2818 135.155 47.3686 137.357C46.1577 140.285 43.4189 141.805 41.4698 139.448C39.5419 137.121 38.2591 134.383 38.6133 130.991Z" fill="#04D361"/>
<path d="M42.7895 140.443C45.6178 129.725 45.6112 117.554 42.4039 107.298" stroke="white" stroke-width="0.9754" stroke-miterlimit="10" stroke-linecap="round" stroke-linejoin="round"/>
<path d="M40.4554 128.258L40.4549 128.258C39.9295 127.738 39.3451 127.319 38.7268 126.876C38.5272 126.733 38.3241 126.587 38.1183 126.435C37.296 125.827 36.4672 125.132 35.8665 124.127C35.0254 122.727 34.8217 121.018 34.6379 119.476C34.6115 119.255 34.5856 119.037 34.5582 118.825L34.558 118.823C34.4496 117.961 34.2873 117.082 34.009 116.296C33.7303 115.51 33.3462 114.848 32.814 114.389C31.5957 113.343 29.9362 113.646 28.3816 114.33L28.3805 114.33C28.206 114.406 28.0264 114.487 27.8428 114.57C27.2314 114.846 26.5756 115.142 25.9173 115.344C25.0453 115.612 24.1035 115.741 23.1239 115.461L40.4554 128.258ZM40.4554 128.258C41.9476 129.732 42.8486 131.975 43.2412 134.267L40.4554 128.258ZM19.2081 113.391L19.2073 113.391C17.5726 112.859 15.9247 113.708 14.2395 114.698L14.239 114.698C13.0367 115.403 11.9288 116.106 11.3992 117.339C10.7549 118.846 11.1718 120.967 12.2267 122.442L12.2273 122.443C13.271 123.909 14.8191 124.788 16.3906 125.211L16.3916 125.211C16.5741 125.261 16.7696 125.309 16.9725 125.36C17.5528 125.504 18.1946 125.664 18.7736 125.903C19.5829 126.238 20.3535 126.756 20.8478 127.683M19.2081 113.391L43.2413 134.268L43.2565 134.357C43.4031 135.219 43.6128 136.451 43.6527 137.62C43.6734 138.225 43.6476 138.791 43.5519 139.268C43.4551 139.751 43.2965 140.092 43.0923 140.298L43.0908 140.299C42.6523 140.746 41.9952 140.741 41.1049 140.347C40.237 139.963 39.3582 139.293 38.7116 138.788L38.7113 138.788C38.4847 138.612 38.2536 138.427 38.0192 138.24C37.507 137.831 36.9788 137.409 36.4466 137.032C35.6622 136.477 34.8205 135.984 33.8984 135.711L33.8984 135.711C32.2475 135.224 30.5829 135.528 29.1034 135.825L29.0825 135.829C27.578 136.131 26.1669 136.414 24.7692 136.076C23.386 135.741 22.0004 134.63 21.5797 133.052C21.4031 132.383 21.3996 131.677 21.3957 130.904C21.395 130.764 21.3943 130.621 21.3925 130.477C21.3816 129.571 21.3273 128.578 20.8478 127.683M19.2081 113.391C19.8063 113.585 20.3732 113.954 21.011 114.37M19.2081 113.391L21.011 114.37M20.8478 127.683C20.8479 127.683 20.848 127.684 20.8481 127.684L20.4069 127.919M20.8478 127.683C20.8477 127.683 20.8477 127.683 20.8476 127.683L20.4069 127.919M20.4069 127.919C19.6765 126.549 18.2364 126.19 16.8851 125.854C16.6737 125.801 16.4646 125.749 16.2607 125.694L20.4069 127.919ZM21.011 114.37L21.0372 114.387M21.011 114.37L21.0372 114.387M21.0372 114.387C21.6597 114.792 22.3552 115.243 23.1238 115.461L21.0372 114.387Z" fill="#04D361" stroke="#04D361"/>
<path d="M43.1814 140.386C36.2859 130.449 27.5967 122.866 17.6794 118.129" stroke="white" stroke-width="0.8986" stroke-miterlimit="10" stroke-linecap="round" stroke-linejoin="round"/>
<path d="M154.015 53.4713C152.786 54.2614 151.836 55.4017 151.295 56.7372C150.753 58.0726 150.646 59.5385 150.988 60.9355C151.367 62.4064 152.213 63.7228 153.404 64.6969C154.595 65.671 156.071 66.2532 157.621 66.3604C159.072 66.4137 160.504 66.0181 161.711 65.2301C162.919 64.4421 163.841 63.3019 164.345 61.9721C164.85 60.6424 164.911 59.1911 164.521 57.8253C164.13 56.4595 163.308 55.249 162.171 54.3665C159.903 52.6165 156.414 51.9031 154.015 53.4713Z" fill="#8257E5"/>
<g opacity="0.3">
<path opacity="0.3" d="M154.015 53.4713C152.786 54.2614 151.836 55.4017 151.295 56.7372C150.753 58.0726 150.646 59.5385 150.988 60.9355C151.367 62.4064 152.213 63.7228 153.404 64.6969C154.595 65.671 156.071 66.2532 157.621 66.3604C159.072 66.4137 160.504 66.0181 161.711 65.2301C162.919 64.4421 163.841 63.3019 164.345 61.9721C164.85 60.6424 164.911 59.1911 164.521 57.8253C164.13 56.4595 163.308 55.249 162.171 54.3665C159.903 52.6165 156.414 51.9031 154.015 53.4713Z" fill="white"/>
</g>
<path d="M154.987 65.6334C155.341 65.1734 155.65 64.6822 155.911 64.1662C156.204 63.5451 156.352 62.8676 156.342 62.1836C156.332 61.4995 156.165 60.8264 155.853 60.2136C155.542 59.6009 155.094 59.064 154.541 58.6427C153.989 58.2213 153.348 57.9262 152.663 57.7789C152.086 57.6728 151.5 57.6142 150.912 57.6039C151.061 57.5335 151.223 57.4945 151.388 57.4895C151.831 57.4341 152.28 57.45 152.718 57.5366C153.459 57.6583 154.16 57.949 154.764 58.3852C155.368 58.8214 155.858 59.3907 156.194 60.0466C156.53 60.7026 156.703 61.4268 156.698 62.1602C156.693 62.8936 156.511 63.6155 156.166 64.2671C155.971 64.6596 155.713 65.0188 155.4 65.3306C155.152 65.5527 155.007 65.6469 154.987 65.6334Z" fill="#FAFAFA"/>
<path d="M164.046 62.7191C163.877 62.7407 163.705 62.7246 163.543 62.672C163.091 62.5832 162.653 62.4361 162.24 62.2345C160.86 61.5517 159.764 60.4248 159.137 59.0442C158.513 57.6636 158.382 56.118 158.765 54.6559C158.878 54.2203 159.04 53.7982 159.248 53.3973C159.399 53.1146 159.503 52.9732 159.523 52.98C159.544 52.9867 159.234 53.653 159.013 54.7097C158.719 56.117 158.875 57.5787 159.461 58.8962C160.064 60.2082 161.078 61.2995 162.357 62.0124C162.907 62.2766 163.471 62.5125 164.046 62.7191Z" fill="#FAFAFA"/>
<path d="M115.404 69.9073C116.501 68.9448 117.273 67.6122 116.701 66.3199L116.666 66.2189C116.525 65.8823 116.311 65.5793 116.039 65.3305C115.434 64.8295 114.703 64.4949 113.922 64.3613C111.371 63.8161 108.675 64.4152 106.11 63.9238C106.284 65.4118 106.787 66.845 107.586 68.1237C108.393 69.4088 109.649 70.3651 111.123 70.816C111.858 71.0241 112.634 71.0501 113.382 70.8914C114.129 70.7328 114.824 70.3945 115.404 69.9073Z" fill="#455A64"/>
<path d="M116.597 70.8967C116.514 69.6717 116.018 68.4736 114.832 68.1573H114.742C114.437 68.0766 114.118 68.056 113.805 68.0967C113.145 68.2264 112.533 68.5262 112.033 68.965C110.309 70.3111 109.275 72.4111 107.606 73.8178C108.711 74.49 109.954 74.9173 111.247 75.0697C112.549 75.2225 113.865 74.9092 114.949 74.188C115.484 73.8175 115.915 73.3221 116.202 72.7471C116.49 72.1722 116.626 71.536 116.597 70.8967Z" fill="#455A64"/>
<path d="M116.556 70.7217C116.279 70.7406 116.002 70.6978 115.745 70.5967C115.488 70.4955 115.258 70.3386 115.072 70.1377C114.886 69.9369 114.75 69.6975 114.673 69.4376C114.596 69.1776 114.58 68.904 114.628 68.6374C114.675 68.3708 114.784 68.1183 114.946 67.8988C115.109 67.6794 115.32 67.4989 115.564 67.3709C115.808 67.2429 116.079 67.1709 116.356 67.1602C116.633 67.1495 116.909 67.2005 117.162 67.3093" fill="#455A64"/>
<path d="M89.0597 114.249C83.8611 115.85 78.2626 111.556 76.7388 106.468C75.2151 101.38 76.7388 95.874 78.6487 90.8934C80.5585 85.9127 82.9441 80.959 83.2267 75.6419C83.5439 69.5372 80.6757 63.1364 75.3047 59.9932C69.9338 56.8501 62.2048 57.6981 58.2955 62.497C54.3862 67.2959 55.8892 75.5476 61.5636 78.1254C60.0467 77.3043 58.4541 76.4563 56.7373 76.4024C55.0205 76.3486 53.09 77.3649 52.7866 79.0341C52.4832 80.7033 53.7794 82.1907 55.1584 83.1869C56.5373 84.183 58.1507 84.9974 59.0056 86.4445C60.3501 88.7261 59.3159 91.5664 58.6747 94.1241C57.5341 98.7127 57.8017 103.528 59.4442 107.969C61.0867 112.41 64.0314 116.281 67.9116 119.101C71.7918 121.92 76.436 123.562 81.2655 123.823C86.0951 124.084 90.8966 122.952 95.0719 120.569" fill="#8257E5"/>
<g opacity="0.3">
<path opacity="0.3" d="M87.7014 114.646C87.074 115.11 86.1501 114.444 85.3917 114.646C85.1278 114.778 84.8989 114.969 84.7231 115.203C84.5473 115.436 84.4292 115.706 84.3781 115.992C83.805 117.366 83.6309 118.868 83.8748 120.333C84.0101 121.06 84.3561 121.735 84.8717 122.276C85.3873 122.818 86.0511 123.204 86.7844 123.389C86.9739 123.446 87.1767 123.448 87.367 123.393C87.5574 123.338 87.7266 123.228 87.8531 123.079C87.9402 122.892 87.9735 122.685 87.9496 122.48L87.7428 115.022" fill="black"/>
</g>
<path d="M110.164 142.423L106.165 119.182L122.147 115.063C125.36 115.918 128.201 118.469 129.731 121.861C131.262 125.253 130.614 131.021 129.407 134.595C132.596 134.493 135.782 134.856 138.86 135.672C141.832 136.661 144.707 138.748 144.272 142.315L110.164 142.423Z" fill="#8257E5"/>
<path d="M110.164 142.423L106.165 119.182L122.147 115.063C125.36 115.918 128.201 118.469 129.731 121.861C131.262 125.253 130.614 131.021 129.407 134.595C132.596 134.493 135.782 134.856 138.86 135.672C141.832 136.661 144.748 138.862 144.314 142.402L110.164 142.423Z" fill="#8257E5"/>
<g opacity="0.3">
<path opacity="0.3" d="M110.164 142.423L106.165 119.182L122.147 115.063C125.36 115.918 128.201 118.469 129.731 121.861C131.262 125.253 130.614 131.021 129.407 134.595C132.596 134.493 135.782 134.856 138.86 135.672C141.832 136.661 144.748 138.862 144.314 142.402L110.164 142.423Z" fill="black"/>
</g>
<path d="M163.15 95.1268L175.678 84.2838L177.96 88.9952C177.96 88.9952 165.68 109.604 163.557 109.308C161.433 109.012 155.662 100.861 149.133 104.422L144.307 99.0844L151.615 84.2771L163.136 95.1268" fill="#8257E5"/>
<path d="M95.3201 142.423H134.199C134.013 133.612 127.442 134.588 127.442 134.588H118.479C123.395 131.896 124.822 125.011 124.822 125.011C134.206 122.554 141.715 111.691 141.715 111.691L149.03 96.9441L149.409 102.268L152.787 95.5374C155.973 83.6243 146.43 66.1854 146.43 66.1854L153.939 66.394C153.939 62.497 149.057 62.497 145.493 61.6826C141.928 60.8682 143.245 56.352 143.245 56.352C143.245 56.352 151.684 57.3818 155.063 53.4847C158.441 49.5877 156.752 44.0619 156.752 44.0619L144.555 45.4955C142.866 43.6514 136.861 40.9928 132.917 42.0158C128.973 43.0389 121.658 48.5714 120.348 51.6406C119.038 54.7097 118.466 64.5498 117.797 72.9496C117.128 81.3493 111.709 86.8752 106.834 92.2058C101.96 97.5364 94.7892 101.245 89.8939 106.979C88.3702 108.776 87.6118 111.866 87.2946 115.271C86.4991 124.069 88.7971 132.869 93.8101 140.222L95.3201 142.423Z" fill="#8257E5"/>
<path d="M149.83 90.5231C149.83 90.8259 150.064 135.665 150.064 135.665C150.064 135.665 158.779 136.338 159.972 142.396H144.321C144.321 142.396 134.709 114.881 131.745 112.552C129.325 110.825 126.727 109.348 123.995 108.144L128.366 106.347L125.381 102.658C125.381 102.658 126.76 104.213 128.566 101.689" fill="#8257E5"/>
<path d="M131.207 46.9897C131.233 47.1068 131.245 47.2266 131.241 47.3465C131.241 47.6224 131.241 47.9589 131.241 48.3695C131.241 49.3118 131.241 50.5906 131.241 52.1386C131.241 53.6867 131.241 55.6385 131.241 57.725C131.261 58.8326 131.217 59.9404 131.11 61.0432C131.008 62.2467 130.661 63.4183 130.09 64.4893C129.478 65.5749 128.461 66.3877 127.249 66.7575C126.117 67.0707 124.913 67.0354 123.802 66.6565C122.803 66.3341 121.905 65.7662 121.196 65.0075C120.592 64.3418 120.124 63.5696 119.817 62.7326C119.389 61.5275 119.236 60.2457 119.369 58.9769C119.398 58.635 119.451 58.2954 119.527 57.9606C119.543 57.8417 119.578 57.7259 119.631 57.6173C119.665 57.6173 119.555 58.1019 119.507 58.9634C119.431 60.208 119.619 61.4544 120.058 62.6249C120.362 63.4239 120.818 64.1593 121.403 64.7921C122.087 65.5011 122.943 66.0311 123.892 66.3334C124.933 66.6748 126.055 66.7006 127.111 66.4075C128.236 66.0615 129.18 65.3042 129.745 64.2941C130.293 63.2638 130.628 62.1388 130.731 60.9826C130.84 59.8933 130.888 58.7992 130.876 57.7048C130.91 55.6116 130.938 53.7271 130.959 52.1184C130.979 50.5098 131.021 49.2916 131.041 48.3493C131.041 47.9388 131.076 47.6022 131.083 47.3263C131.107 47.2088 131.149 47.0955 131.207 46.9897Z" fill="#263238"/>
<path d="M153.077 44.5667C152.987 45.188 153.145 45.8192 153.518 46.3302C153.896 46.7901 154.39 47.1452 154.952 47.36C155.641 47.7321 156.444 47.8492 157.214 47.6897C157.325 46.7587 157.288 45.8164 157.103 44.8965C157.092 44.7523 157.05 44.6121 156.98 44.4846C156.91 44.3572 156.813 44.2453 156.697 44.1561C156.546 44.0855 156.381 44.0509 156.214 44.0552C155.143 44.0088 154.074 44.1831 153.077 44.5667Z" fill="#263238"/>
<path d="M173.106 87.2722C174.45 85.5963 175.698 84.0482 176.953 83.2339C178.26 82.3128 179.837 81.8288 181.449 81.8541C182.249 81.8742 183.032 82.0883 183.726 82.4772C184.421 82.8661 185.005 83.4176 185.427 84.0819C185.829 84.7586 185.991 85.5463 185.886 86.3219C185.781 87.0976 185.416 87.8175 184.848 88.3693C183.883 89.1555 182.657 89.5697 181.4 89.5337C180.723 89.5579 180.058 89.3587 179.511 88.9683C179.229 88.7096 179.044 88.3658 178.987 87.9922C178.929 87.6186 179.002 87.237 179.194 86.9087L177.76 89.3788L173.106 87.2722Z" fill="#8257E5"/>
<path d="M149.83 132.926C149.733 132.926 149.705 123.335 149.768 111.516C149.83 99.6969 149.968 90.1125 150.064 90.1125C150.161 90.1125 150.196 99.6969 150.127 111.523C150.058 123.348 149.926 132.926 149.83 132.926Z" fill="#263238"/>
<path d="M132.034 142.423C131.979 142.423 132.076 141.958 132.034 141.231C131.98 140.287 131.656 139.376 131.099 138.602C130.542 137.828 129.775 137.221 128.883 136.85C128.194 136.56 127.725 136.493 127.739 136.439C128.16 136.386 128.587 136.449 128.973 136.621C129.951 136.95 130.799 137.573 131.394 138.399C131.989 139.226 132.303 140.214 132.289 141.225C132.318 141.639 132.23 142.053 132.034 142.423Z" fill="#263238"/>
<path d="M107.241 114.935C107.346 114.876 107.457 114.826 107.572 114.787C107.893 114.651 108.222 114.534 108.558 114.437C109.788 114.064 111.063 113.849 112.35 113.797C114.275 113.712 116.196 114.034 117.983 114.74C120.189 115.59 122.089 117.059 123.443 118.96C124.127 119.956 124.609 121.071 124.864 122.244C125.083 123.34 125.118 124.463 124.967 125.569C124.72 127.438 124.01 129.219 122.899 130.759C122.123 131.763 121.238 132.681 120.258 133.498C119.92 133.794 119.644 134.009 119.458 134.171C119.369 134.253 119.269 134.323 119.162 134.38C119.235 134.284 119.318 134.196 119.41 134.117L120.162 133.41C121.093 132.564 121.941 131.633 122.692 130.631C123.744 129.109 124.408 127.365 124.629 125.542C124.765 124.473 124.725 123.389 124.512 122.332C124.262 121.202 123.794 120.128 123.133 119.168C121.816 117.322 119.976 115.891 117.838 115.049C116.091 114.345 114.212 114.008 112.322 114.06C111.049 114.087 109.783 114.261 108.551 114.578C107.723 114.794 107.255 114.969 107.241 114.935Z" fill="#263238"/>
<path d="M136.778 120.643C136.778 120.643 136.723 120.582 136.633 120.454L136.275 119.882C135.971 119.384 135.537 118.644 135.013 117.695C134.489 116.746 133.868 115.601 133.213 114.269C132.462 112.799 131.819 111.278 131.29 109.719L131.6 109.752C131.172 110.526 130.731 111.341 130.283 112.182L130.118 112.478L129.966 112.175C129.364 110.952 129.125 109.588 129.276 108.238C129.322 107.812 129.407 107.391 129.531 106.979L129.842 107.134L127.573 110.022L127.332 110.331L127.27 109.948C126.712 106.626 126.794 103.232 127.511 99.9392C127.717 98.9837 127.984 98.0418 128.311 97.1191C128.421 96.796 128.525 96.5538 128.587 96.3922C128.617 96.3053 128.656 96.2218 128.704 96.1432C128.635 96.4881 128.54 96.8277 128.421 97.1595C128.228 97.8326 127.966 98.7614 127.732 99.9796C127.097 103.25 127.057 106.603 127.615 109.887L127.304 109.813L129.566 106.919L130.145 106.172L129.876 107.074C129.764 107.466 129.685 107.867 129.642 108.272C129.511 109.562 129.75 110.862 130.331 112.027H130.021L131.352 109.604L131.538 109.254L131.655 109.631C132.174 111.177 132.796 112.688 133.517 114.154C134.151 115.5 134.744 116.651 135.24 117.607L136.419 119.842C136.555 120.101 136.675 120.369 136.778 120.643Z" fill="#263238"/>
<path d="M157.786 142.423C157.731 142.423 157.683 141.965 157.434 141.265C157.124 140.359 156.59 139.54 155.881 138.881C155.172 138.221 154.309 137.741 153.366 137.482C152.642 137.281 152.167 137.254 152.167 137.2C152.585 137.11 153.019 137.126 153.428 137.247C154.443 137.457 155.378 137.937 156.131 138.633C156.881 139.331 157.416 140.219 157.676 141.198C157.817 141.591 157.855 142.012 157.786 142.423Z" fill="#263238"/>
<path d="M177.795 82.8839C177.61 83.0947 177.402 83.2843 177.174 83.4493L175.388 84.8896C173.906 86.1011 171.858 87.7771 169.631 89.6684C167.404 91.5597 165.412 93.3096 163.978 94.5817L162.288 96.0759C162.09 96.2714 161.87 96.4452 161.633 96.5941C161.795 96.3675 161.982 96.1597 162.192 95.9749C162.564 95.598 163.123 95.0528 163.819 94.4C165.198 93.0538 167.177 91.3039 169.404 89.4059C171.631 87.5078 173.72 85.8588 175.244 84.6944C176.009 84.1156 176.622 83.6512 177.078 83.3483C177.3 83.171 177.541 83.0155 177.795 82.8839Z" fill="#263238"/>
<path d="M181.745 86.653C181.711 86.6934 181.538 86.5588 181.235 86.4511C180.84 86.314 180.409 86.314 180.015 86.4511C179.626 86.6003 179.301 86.873 179.091 87.2251C178.925 87.5011 178.884 87.7097 178.829 87.703C178.773 87.6963 178.732 87.4742 178.863 87.1242C178.948 86.893 179.084 86.6831 179.262 86.5094C179.439 86.3357 179.654 86.2026 179.891 86.1195C180.127 86.0365 180.38 86.0057 180.63 86.0293C180.88 86.0529 181.122 86.1303 181.338 86.2559C181.669 86.4175 181.78 86.6261 181.745 86.653Z" fill="#263238"/>
<g opacity="0.3">
<path opacity="0.3" d="M149.823 103.877L153.642 103.345C153.907 103.332 154.161 103.243 154.373 103.089C154.711 102.786 154.635 102.254 154.532 101.824C153.583 98.0228 152.103 94.3674 150.133 90.9606C149.781 95.4499 149.65 99.9594 149.754 104.462" fill="black"/>
</g>
<g opacity="0.3">
<path opacity="0.3" d="M127.856 96.8027C126.394 99.1438 125.415 101.741 124.974 104.449C124.763 105.802 124.838 107.183 125.194 108.507C125.55 109.831 126.179 111.07 127.043 112.148C127.991 113.138 129.066 114.005 130.242 114.726L133.544 116.947C133.691 114.509 132.852 112.111 131.207 110.271C130.952 110.944 130.704 111.65 130.449 112.337C129.904 111.67 129.52 110.891 129.326 110.059C129.131 109.227 129.131 108.363 129.325 107.531L127.049 109.934C127.03 105.549 127.455 101.173 128.318 96.87" fill="black"/>
</g>
<g opacity="0.3">
<path opacity="0.3" d="M119.493 59.7239C119.562 61.8238 119.872 64.1594 121.134 65.8689C121.741 66.742 122.577 67.4406 123.554 67.8927C124.531 68.3447 125.614 68.5337 126.691 68.44C129.311 68.0698 131.2 65.6132 131.71 63.0555C132.22 60.4979 131.655 57.9067 131.083 55.3827C131.221 57.7384 131.345 60.1681 130.511 62.3825C129.676 64.5968 127.642 66.5622 125.222 66.5622C124.382 66.5357 123.56 66.3129 122.826 65.9123C122.092 65.5118 121.466 64.9453 121.003 64.2603C119.996 62.9467 119.465 61.3439 119.493 59.7037" fill="black"/>
</g>
<g opacity="0.3">
<path opacity="0.3" d="M116.418 70.6073C117.59 76.8802 124.257 81.3762 130.111 84.2838C135.964 87.1914 142.48 88.6654 149.016 89.4125C150.297 89.5907 151.592 89.6515 152.884 89.5943C153.67 89.5337 154.628 89.2308 154.732 88.4702C154.835 87.7097 153.911 87.1241 153.125 86.828C144.621 83.603 136.331 79.8625 128.304 75.6283C124.678 73.7101 121.023 71.6707 116.983 70.8496" fill="black"/>
</g>
<path d="M116.742 66.5758C116.399 66.6306 116.06 66.7093 115.728 66.8113C115.358 66.9596 115.035 67.2026 114.794 67.5148C114.553 67.827 114.403 68.1968 114.359 68.5854C114.315 68.9739 114.38 69.3668 114.546 69.7227C114.711 70.0785 114.972 70.3842 115.301 70.6074C115.601 70.7749 115.912 70.9233 116.232 71.0516C115.858 71.1135 115.474 71.0289 115.163 70.8161C114.806 70.6132 114.509 70.3233 114.301 69.9747C114.048 69.5403 113.942 69.0392 113.998 68.5426C114.054 68.046 114.268 67.5791 114.611 67.2084C114.895 66.9145 115.251 66.6967 115.646 66.5758C115.819 66.5026 116.005 66.4648 116.194 66.4648C116.382 66.4648 116.569 66.5026 116.742 66.5758Z" fill="#263238"/>
<path d="M116.576 69.3487C116.48 69.3487 116.273 68.7631 115.79 68.1439C115.308 67.5247 114.777 67.1612 114.832 67.067C114.887 66.9728 115.556 67.242 116.08 67.9353C116.604 68.6285 116.673 69.342 116.576 69.3487Z" fill="#263238"/>
<path d="M116.094 68.4065C116.163 68.4738 115.852 68.8574 115.335 69.1603C114.818 69.4632 114.329 69.5506 114.301 69.4564C114.274 69.3622 114.667 69.1468 115.149 68.8574C115.632 68.568 116.011 68.3324 116.094 68.4065Z" fill="#263238"/>
<path d="M113.57 69.0458C113.194 69.0803 112.822 69.1525 112.46 69.2612C111.621 69.627 110.894 70.1999 110.351 70.9237C109.533 71.9532 108.621 72.9084 107.627 73.7774C108.349 72.6805 109.171 71.6488 110.082 70.6948C110.656 69.9246 111.457 69.3426 112.378 69.0256C112.567 68.9497 112.771 68.9124 112.976 68.9159C113.181 68.9193 113.383 68.9636 113.57 69.0458Z" fill="#263238"/>
<path d="M113.336 72.3842C113.274 72.3035 113.694 71.9198 114.136 71.3948C114.577 70.8698 114.887 70.4054 114.977 70.4458C115.067 70.4862 114.887 71.0583 114.412 71.6169C113.936 72.1756 113.336 72.4583 113.336 72.3842Z" fill="#263238"/>
<path d="M112.936 71.0246C112.936 70.9304 113.295 70.7621 113.763 70.5737C114.232 70.3852 114.632 70.2506 114.687 70.3381C114.742 70.4256 114.398 70.7016 113.901 70.9035C113.405 71.1054 112.957 71.1189 112.936 71.0246Z" fill="#263238"/>
<path d="M111.674 67.02C111.674 66.9257 112.302 66.7171 113.122 66.8315C113.943 66.9459 114.501 67.3161 114.467 67.3902C114.432 67.4642 113.832 67.2758 113.088 67.1815C112.343 67.0873 111.688 67.1209 111.674 67.02Z" fill="#263238"/>
<path d="M112.646 65.5729C112.646 65.4787 113.336 65.519 113.922 66.0306C114.508 66.5421 114.611 67.1882 114.536 67.2017C114.46 67.2151 114.198 66.7305 113.681 66.2931C113.164 65.8556 112.591 65.6738 112.646 65.5729Z" fill="#263238"/>
<path d="M116.418 70.6074C117.866 73.589 120.01 75.3188 122.623 77.338C130.471 83.6248 140.026 87.5425 150.119 88.6117C150.982 88.7341 151.86 88.7182 152.718 88.5646C153.144 88.4856 153.549 88.3202 153.905 88.0791C154.261 87.8379 154.562 87.5264 154.787 87.1646C155.318 86.2223 155.111 85.0647 154.863 84.0214C154.151 80.9516 153.23 77.9318 152.105 74.9823C152.03 74.7364 151.906 74.5076 151.739 74.3092C151.195 73.7573 150.995 73.7708 150.25 74.04C144.865 75.9717 138.108 75.3457 132.593 73.7775C127.077 72.2092 122.189 70.0487 116.494 69.3488L116.418 70.6074Z" fill="#455A64"/>
<path d="M152.829 77.1966L152.443 77.2639L151.346 77.4456C150.871 77.5264 150.285 77.6206 149.602 77.6812C148.919 77.7418 148.14 77.8562 147.272 77.8899C146.403 77.9235 145.465 78.0043 144.445 77.9908C143.424 77.9774 142.335 77.9908 141.19 77.9235C138.711 77.7663 136.247 77.4425 133.813 76.9543C131.385 76.4445 128.996 75.7698 126.663 74.9351C125.595 74.5246 124.595 74.1544 123.657 73.7236C122.72 73.2929 121.878 72.9092 121.113 72.5188C120.348 72.1285 119.665 71.7448 119.045 71.4083C118.424 71.0718 117.948 70.7756 117.542 70.5064L116.611 69.9141L116.294 69.6987L116.632 69.8872L117.576 70.466C117.983 70.7218 118.486 71.0247 119.086 71.341C119.686 71.6573 120.355 72.0679 121.154 72.4313C121.954 72.7948 122.768 73.2323 123.706 73.6159C124.643 73.9996 125.643 74.4101 126.712 74.814C129.038 75.6456 131.42 76.3202 133.841 76.8332C136.27 77.3162 138.73 77.6377 141.204 77.7956C142.342 77.8427 143.424 77.91 144.445 77.8831C145.465 77.8562 146.403 77.8495 147.265 77.7956C148.127 77.7418 148.906 77.6745 149.588 77.6072C150.271 77.5399 150.864 77.4726 151.339 77.3985L152.443 77.2437C152.691 77.2033 152.829 77.1966 152.829 77.1966Z" fill="#E0E0E0"/>
<path d="M154.642 82.5809C154.642 82.5809 154.063 82.6954 152.994 82.8502C151.49 83.0534 149.975 83.177 148.458 83.2204C138.323 83.5188 128.412 80.2778 120.506 74.0802C119.32 73.156 118.187 72.1673 117.114 71.1188C116.356 70.3717 115.963 69.9342 115.963 69.9342L116.273 70.2304C116.48 70.4188 116.763 70.7217 117.149 71.0784C117.921 71.812 119.065 72.8351 120.596 74.0062C128.514 80.1355 138.383 83.3603 148.485 83.1194C150 83.0871 151.512 82.9793 153.015 82.7963C153.553 82.7358 153.959 82.6617 154.242 82.6281L154.642 82.5809Z" fill="#E0E0E0"/>
<path d="M120.761 75.6081C120.761 75.6081 120.761 75.5341 120.699 75.3995C120.662 75.2106 120.639 75.0194 120.63 74.8274C120.591 74.1901 120.661 73.5509 120.837 72.9361C121.018 72.3213 121.299 71.7393 121.671 71.213C121.786 71.0557 121.911 70.9051 122.044 70.7621C122.14 70.6611 122.195 70.614 122.202 70.6207C122.209 70.6275 122.023 70.863 121.761 71.2938C121.416 71.8236 121.151 72.3994 120.975 73.0034C120.805 73.6061 120.721 74.2291 120.727 74.8543C120.734 75.3322 120.782 75.6081 120.761 75.6081Z" fill="#E0E0E0"/>
<path d="M117.948 73.1986C117.92 73.0247 117.92 72.8475 117.948 72.6736C118.018 72.2543 118.133 71.8436 118.293 71.4486C118.453 71.0557 118.656 70.681 118.9 70.3313C118.994 70.179 119.113 70.0426 119.252 69.9275C118.946 70.437 118.67 70.9628 118.424 71.5024C118.237 72.0597 118.078 72.6258 117.948 73.1986Z" fill="#E0E0E0"/>
<path d="M124.436 78.6571C124.522 78.3177 124.625 77.9829 124.747 77.6542C125.258 76.043 125.547 74.3727 125.608 72.6871C125.608 72.014 125.608 71.6371 125.65 71.6371C125.675 71.7292 125.687 71.8244 125.684 71.9198C125.684 72.1015 125.684 72.364 125.684 72.6871C125.68 73.5353 125.604 74.3818 125.457 75.2178C125.312 76.0545 125.098 76.8784 124.816 77.6811C124.705 77.9907 124.609 78.233 124.533 78.4013C124.507 78.4888 124.475 78.5743 124.436 78.6571Z" fill="#E0E0E0"/>
<path d="M130.573 82.6416C130.519 82.5285 130.476 82.4115 130.442 82.2916C130.366 82.0627 130.276 81.7262 130.18 81.3089C129.7 79.1121 129.776 76.8344 130.4 74.6725C130.488 74.3457 130.597 74.0243 130.724 73.7101C130.76 73.5919 130.811 73.4788 130.876 73.3735C130.852 73.495 130.817 73.6143 130.773 73.7303C130.697 73.9591 130.6 74.2889 130.497 74.6995C130.219 75.7748 130.06 76.8758 130.021 77.984C129.986 79.0916 130.074 80.1996 130.283 81.2887C130.359 81.706 130.435 82.0425 130.497 82.2781C130.532 82.3972 130.557 82.5187 130.573 82.6416Z" fill="#E0E0E0"/>
<path d="M137.309 85.7041C137.239 85.5742 137.185 85.4363 137.15 85.2935C137.061 85.0243 136.943 84.6204 136.812 84.1358C136.476 82.8508 136.234 81.544 136.088 80.2253C135.949 78.9063 135.905 77.5793 135.957 76.2543C135.957 75.7495 136.013 75.3389 136.047 75.0563C136.056 74.9094 136.074 74.7633 136.102 74.6188C136.12 74.7641 136.12 74.911 136.102 75.0563C136.102 75.3389 136.102 75.7293 136.061 76.261C136.007 78.9013 136.292 81.5378 136.909 84.1089C137.026 84.607 137.129 85.0041 137.205 85.2733C137.25 85.4144 137.285 85.5583 137.309 85.7041Z" fill="#E0E0E0"/>
<path d="M142.673 75.1908C142.746 75.3494 142.797 75.5169 142.825 75.6889C142.91 76.1631 142.91 76.6482 142.825 77.1225C142.735 77.7215 142.514 78.4147 142.397 79.1955C142.305 79.6079 142.298 80.0343 142.377 80.4493C142.457 80.8644 142.62 81.2596 142.859 81.6118C143.165 81.9389 143.505 82.2344 143.873 82.4935C144.23 82.7474 144.504 83.0986 144.659 83.5031C144.822 84.2114 144.714 84.9535 144.355 85.5895C144.1 86.1414 143.879 86.5722 143.776 86.8953C143.673 87.2183 143.645 87.3933 143.631 87.3933C143.64 87.2178 143.67 87.0438 143.721 86.8751C143.872 86.4151 144.054 85.9655 144.266 85.529C144.6 84.9092 144.696 84.1925 144.534 83.5098C144.381 83.1325 144.12 82.8056 143.783 82.5675C143.406 82.3042 143.059 82.0018 142.749 81.6656C142.497 81.2988 142.325 80.8859 142.242 80.452C142.159 80.0181 142.167 79.5723 142.266 79.1416C142.397 78.3474 142.625 77.6609 142.728 77.0754C142.825 76.6127 142.848 76.1382 142.797 75.6687C142.728 75.3658 142.659 75.1908 142.673 75.1908Z" fill="#E0E0E0"/>
<path d="M152.084 88.6655C152.272 88.5771 152.437 88.4482 152.567 88.2886C152.721 88.0574 152.822 87.7961 152.863 87.523C152.903 87.2498 152.882 86.9713 152.801 86.7069C152.492 85.9375 151.992 85.2552 151.346 84.7214C150.99 84.3659 150.684 83.9652 150.436 83.53C150.181 83.0569 149.993 82.5519 149.878 82.0291C149.682 81.0238 149.548 80.0079 149.478 78.9869C149.407 78.162 149.227 77.3497 148.94 76.5706C148.739 76.0486 148.445 75.5654 148.071 75.1438C147.796 74.8543 147.609 74.7265 147.616 74.713C147.796 74.8272 147.963 74.9604 148.113 75.1101C148.511 75.5228 148.822 76.0076 149.03 76.537C149.339 77.3187 149.533 78.1389 149.609 78.9735C149.687 79.9873 149.823 80.9962 150.016 81.9955C150.221 82.9909 150.716 83.9072 151.443 84.6339C152.094 85.1771 152.594 85.8715 152.898 86.653C152.979 86.9293 152.996 87.22 152.946 87.5033C152.896 87.7867 152.78 88.0552 152.608 88.2886C152.51 88.4108 152.385 88.5098 152.243 88.578C152.139 88.652 152.091 88.6722 152.084 88.6655Z" fill="#E0E0E0"/>
<path d="M114.425 70.7151C114.395 70.8148 114.351 70.9099 114.294 70.9977C114.158 71.2347 114.001 71.4599 113.825 71.6708C113.246 72.4089 112.491 72.998 111.626 73.3871C110.762 73.7728 109.817 73.9527 108.868 73.9121C108.582 73.8992 108.299 73.8609 108.02 73.7976C107.82 73.7573 107.71 73.7236 107.717 73.7101C107.724 73.6967 108.158 73.7976 108.875 73.8111C109.807 73.8291 110.732 73.6404 111.578 73.2591C112.425 72.8779 113.172 72.3141 113.763 71.6102C114.205 71.0987 114.398 70.7016 114.425 70.7151Z" fill="#E0E0E0"/>
<path d="M112.598 74.8475C112.671 74.0079 112.472 73.1671 112.031 72.4429C111.59 71.7187 110.927 71.1475 110.137 70.8092C110.137 70.8092 110.213 70.8092 110.337 70.8563C110.514 70.9198 110.684 70.9986 110.847 71.0919C111.386 71.4019 111.836 71.8394 112.157 72.3639C112.477 72.8885 112.658 73.4834 112.681 74.0937C112.694 74.2752 112.694 74.4574 112.681 74.6389C112.646 74.7802 112.646 74.8543 112.598 74.8475Z" fill="#E0E0E0"/>
<path d="M115.404 73.69C115.404 73.69 115.404 73.3467 115.253 72.815C115.092 72.1253 114.774 71.4798 114.323 70.9264C113.872 70.3729 113.299 69.9257 112.646 69.618C112.143 69.3824 111.798 69.3084 111.805 69.2882C111.889 69.2869 111.973 69.2983 112.053 69.3218C112.271 69.374 112.483 69.4438 112.688 69.5305C113.373 69.8217 113.976 70.2695 114.446 70.8362C114.905 71.4094 115.22 72.0805 115.363 72.7948C115.403 73.017 115.424 73.2422 115.425 73.4679C115.427 73.5424 115.42 73.6169 115.404 73.69Z" fill="#E0E0E0"/>
<path d="M110.895 64.2537C110.752 64.4423 110.559 64.589 110.337 64.6777C109.951 64.8863 109.351 64.994 108.778 65.2767C108.088 65.6466 107.501 66.1758 107.068 66.818C107.143 66.5984 107.26 66.395 107.413 66.219C107.755 65.7694 108.199 65.4031 108.709 65.1488C109.316 64.8594 109.916 64.7652 110.295 64.5902C110.503 64.4909 110.703 64.3785 110.895 64.2537Z" fill="#E0E0E0"/>
<path d="M114.715 64.4084C114.702 64.5127 114.674 64.6147 114.632 64.7113C114.539 64.978 114.424 65.2369 114.287 65.4853C113.392 67.1574 111.855 68.4156 110.013 68.9852C109.738 69.0736 109.457 69.1389 109.171 69.1804L108.861 69.214C108.861 69.214 109.302 69.1198 109.985 68.891C111.771 68.2756 113.268 67.0488 114.198 65.4382C114.536 64.8392 114.715 64.4017 114.715 64.4084Z" fill="#E0E0E0"/>
<path d="M113.632 68.2045C113.632 68.2045 113.522 68.1642 113.343 68.0632L112.571 67.619L110.026 66.1854L107.455 64.7854L106.676 64.3681C106.578 64.3212 106.486 64.2648 106.4 64.1998C106.505 64.229 106.607 64.2697 106.703 64.321L107.503 64.6979C108.192 65.0344 109.096 65.5056 110.095 66.044C111.095 66.5825 111.991 67.1276 112.626 67.5247L113.37 68.0026C113.465 68.0605 113.553 68.1282 113.632 68.2045Z" fill="#E0E0E0"/>
<path d="M98.1675 101.245C98.4406 100.626 98.8233 100.058 99.2982 99.569C99.6693 99.011 100.136 98.5193 100.677 98.1152C100.404 98.7344 100.021 99.3017 99.5464 99.7911C99.1754 100.349 98.7089 100.841 98.1675 101.245Z" fill="#263238"/>
<path d="M99.0638 101.541C98.9811 101.48 99.2707 100.949 99.6981 100.35C100.126 99.7507 100.546 99.3132 100.629 99.367C100.712 99.4209 100.429 99.9526 99.9946 100.552C99.5602 101.151 99.1465 101.595 99.0638 101.541Z" fill="#263238"/>
<path d="M101.374 101.905C101.27 101.905 101.249 101.407 101.325 100.807C101.401 100.208 101.533 99.744 101.636 99.7575C101.74 99.7709 101.754 100.256 101.685 100.855C101.615 101.454 101.47 101.918 101.374 101.905Z" fill="#263238"/>
<path d="M119.631 89.3588C119.432 88.8693 119.35 88.3424 119.389 87.8175C119.311 87.2949 119.352 86.7619 119.507 86.256C119.706 86.7477 119.788 87.2768 119.749 87.804C119.826 88.3244 119.786 88.855 119.631 89.3588Z" fill="#263238"/>
<path d="M120.92 89.7424C120.589 89.2776 120.38 88.7401 120.313 88.1777C120.246 87.6153 120.321 87.0453 120.534 86.5184C120.61 87.0561 120.654 87.5978 120.665 88.1405C120.789 88.6679 120.874 89.2032 120.92 89.7424Z" fill="#263238"/>
<path d="M122.844 90.0722C122.397 89.6604 122.044 89.1621 121.807 88.6092C121.569 88.0563 121.453 87.4611 121.465 86.8617C121.742 87.3773 121.973 87.9155 122.154 88.4703C122.431 88.9841 122.661 89.52 122.844 90.0722Z" fill="#263238"/>
<path d="M137.412 71.0649C137.371 71.1524 136.723 70.8899 136.219 70.2034C135.716 69.5169 135.695 68.8102 135.792 68.8102C135.888 68.8102 136.068 69.389 136.481 70.0015C136.895 70.614 137.467 70.9774 137.412 71.0649Z" fill="#263238"/>
<path d="M138.384 70.8362C138.343 70.9237 137.833 70.7554 137.391 70.291C136.95 69.8266 136.826 69.3151 136.916 69.2814C137.005 69.2478 137.26 69.6449 137.653 70.0554C138.046 70.466 138.433 70.7487 138.384 70.8362Z" fill="#263238"/>
<path d="M140.342 71.0717C140.308 71.1592 139.55 70.8698 138.867 70.1698C138.417 69.7865 138.115 69.2638 138.012 68.6891C138.109 68.642 138.488 69.2814 139.129 69.9275C139.77 70.5737 140.398 70.9842 140.342 71.0717Z" fill="#263238"/>
<path d="M122.775 56.8567C122.672 56.8567 122.54 56.3923 122.485 55.8C122.43 55.2077 122.485 54.7164 122.547 54.7029C122.609 54.6895 122.775 55.1673 122.837 55.7663C122.9 56.3654 122.872 56.85 122.775 56.8567Z" fill="#263238"/>
<path d="M123.817 56.3722C123.727 56.4126 123.457 55.928 123.388 55.2684C123.319 54.6088 123.478 54.0906 123.568 54.104C123.658 54.1175 123.678 54.6223 123.748 55.2348C123.817 55.8472 123.913 56.3386 123.817 56.3722Z" fill="#263238"/>
<path d="M124.919 56.85C124.836 56.8971 124.457 56.3721 124.278 55.6116C124.11 55.1639 124.11 54.6728 124.278 54.2251C124.381 54.2251 124.443 54.8241 124.616 55.5308C124.788 56.2375 125.015 56.8029 124.919 56.85Z" fill="#263238"/>
<path d="M101.139 126.168C101.15 124.938 101.398 123.721 101.87 122.581C101.93 123.195 101.866 123.814 101.684 124.405C101.614 125.02 101.43 125.618 101.139 126.168Z" fill="#263238"/>
<path d="M102.304 125.098C102.208 125.098 102.208 124.634 102.304 124.109C102.401 123.584 102.567 123.166 102.664 123.187C102.76 123.207 102.76 123.644 102.664 124.169C102.567 124.694 102.367 125.112 102.304 125.098Z" fill="#263238"/>
<path d="M60.7706 89.4126C60.6672 89.4126 60.7706 88.2011 60.5086 86.7608C60.2466 85.3204 59.7019 84.2368 59.8192 84.1897C60.4023 84.9156 60.7696 85.7841 60.8809 86.7002C61.1036 87.5967 61.0654 88.5362 60.7706 89.4126Z" fill="#263238"/>
<path d="M157.145 48.6117C157.156 48.816 157.133 49.0206 157.076 49.2175C156.963 49.7604 156.806 50.2938 156.607 50.8126C156.313 51.5885 155.934 52.3309 155.476 53.027C154.913 53.8929 154.162 54.628 153.277 55.1807C152.379 55.6999 151.401 56.0748 150.381 56.2913C149.009 56.6075 147.598 56.7343 146.189 56.6682C145.98 56.6702 145.771 56.643 145.569 56.5874C145.569 56.5268 146.458 56.5538 147.865 56.4057C148.688 56.3204 149.504 56.1765 150.305 55.9749C151.275 55.7462 152.204 55.3788 153.063 54.8846C153.901 54.36 154.619 53.6727 155.173 52.8654C155.631 52.196 156.023 51.4862 156.345 50.7453C156.917 49.453 157.083 48.5983 157.145 48.6117Z" fill="#263238"/>
<path d="M139.653 48.3695C139.357 48.3792 139.076 48.5023 138.871 48.7121C138.667 48.9219 138.555 49.2017 138.56 49.4912C138.565 49.7807 138.687 50.0567 138.898 50.2597C139.11 50.4627 139.394 50.5765 139.691 50.5765C139.988 50.5765 140.272 50.4627 140.484 50.2597C140.695 50.0567 140.817 49.7807 140.821 49.4912C140.826 49.2017 140.715 48.9219 140.51 48.7121C140.306 48.5023 140.025 48.3792 139.729 48.3695" fill="#263238"/>
<path d="M135.399 49.1435C135.261 49.1771 135.068 48.9819 134.944 48.5983C134.807 48.0867 134.828 47.547 135.003 47.0467C135.178 46.5464 135.501 46.1075 135.93 45.785C136.268 45.5494 136.543 45.5157 136.619 45.6301C136.798 45.8657 136.302 46.5118 136.013 47.3868C135.723 48.2618 135.716 49.056 135.399 49.1435Z" fill="#263238"/>
<path d="M112.405 85.8723C110.279 88.1378 107.584 89.8221 104.587 90.7587C105.139 91.1192 105.784 91.322 106.448 91.3443C105.28 92.044 103.997 92.5425 102.656 92.8183C103.538 93.2352 104.513 93.4309 105.492 93.3875C106.471 93.3442 107.423 93.0633 108.263 92.5702C109.103 92.0771 109.804 91.3873 110.302 90.5633C110.8 89.7394 111.08 88.8072 111.116 87.8511" fill="#8257E5"/>
<path d="M47.2157 76.7591C47.0552 76.5041 46.9278 76.2305 46.8365 75.9447C46.6908 75.6154 46.5642 75.2783 46.4573 74.9351C46.3401 74.5447 46.1746 74.1005 46.0643 73.589C45.7653 72.4138 45.5693 71.2159 45.4783 70.0083C45.2575 67.0474 45.6419 64.0732 46.609 61.2586C47.0084 60.1123 47.5042 59.0002 48.0914 57.9337C48.3258 57.4693 48.6016 57.0856 48.8153 56.7356C49.0025 56.4365 49.205 56.1467 49.422 55.8674C49.5891 55.6229 49.7833 55.3972 50.0012 55.1943C50.0633 55.2347 49.2704 56.251 48.3189 58.0683C47.7724 59.1357 47.3114 60.2428 46.94 61.3797C46.4909 62.7749 46.1634 64.2046 45.9609 65.6536C45.787 67.1054 45.7408 68.5691 45.823 70.0285C45.8981 71.2216 46.0663 72.4074 46.3263 73.5755C46.7745 75.5611 47.2847 76.7389 47.2157 76.7591Z" fill="#263238"/>
<path d="M42.0722 73.9255C41.9629 73.7589 41.8792 73.5774 41.824 73.3871C41.6232 72.8866 41.4641 72.3712 41.3482 71.8457C40.533 68.3613 40.9334 64.7109 42.4859 61.4739C42.7172 60.9867 42.9845 60.5166 43.2857 60.0672C43.4994 59.7509 43.6304 59.5826 43.6511 59.5961C43.6718 59.6095 43.2581 60.3432 42.7203 61.5749C41.3272 64.8021 40.9481 68.3606 41.6309 71.7986C41.8516 73.1111 42.1343 73.9053 42.0722 73.9255Z" fill="#263238"/>
<path d="M89.956 75.2649C89.8732 75.2649 90.0249 74.0467 89.8319 72.0948C89.7851 71.5636 89.7069 71.0355 89.5975 70.5131C89.5078 69.9477 89.3355 69.3555 89.17 68.7362C88.3795 66.0348 86.9961 63.5337 85.1159 61.4066C84.6677 60.9288 84.2609 60.4644 83.8197 60.0605C83.4328 59.6849 83.0254 59.3299 82.5993 58.9971C81.0342 57.7721 79.9035 57.2337 79.9448 57.1664C80.2216 57.2598 80.4873 57.3816 80.7377 57.5298C81.0453 57.6813 81.3424 57.8521 81.6271 58.0413C82.0163 58.2738 82.3915 58.5277 82.751 58.8019C83.197 59.1246 83.6229 59.473 84.0265 59.8451C84.4967 60.2701 84.9432 60.7195 85.3641 61.1913C86.3212 62.2694 87.16 63.4425 87.8669 64.6912C88.5501 65.9501 89.0933 67.2769 89.4871 68.6487C89.6564 69.2468 89.7922 69.8535 89.8939 70.466C89.9909 70.998 90.0554 71.5351 90.087 72.0746C90.1421 72.5659 90.1214 73.0169 90.1283 73.4207C90.1339 73.7559 90.1155 74.0909 90.0732 74.4236C90.0614 74.707 90.0221 74.9887 89.956 75.2649Z" fill="#263238"/>
<path d="M64.2287 209.392H53.7149L51.7161 215.389H45.3399L56.1735 186.286H61.7302L72.6238 215.389H66.2475L64.2287 209.392ZM55.334 204.535H62.6097L58.9518 193.642L55.334 204.535ZM74.0629 204.415C74.0629 201.044 74.8158 198.359 76.3216 196.36C77.8407 194.361 79.9128 193.362 82.5379 193.362C84.6434 193.362 86.3823 194.148 87.7548 195.72V184.687H93.5514V215.389H88.3345L88.0547 213.09C86.6155 214.889 84.7633 215.788 82.4979 215.788C79.9528 215.788 77.9073 214.789 76.3616 212.79C74.8291 210.778 74.0629 207.986 74.0629 204.415ZM79.8395 204.835C79.8395 206.86 80.1926 208.413 80.8989 209.492C81.6051 210.572 82.6312 211.111 83.9771 211.111C85.7627 211.111 87.0219 210.358 87.7548 208.853V200.318C87.0353 198.812 85.7893 198.059 84.0171 198.059C81.232 198.059 79.8395 200.318 79.8395 204.835ZM97.1293 204.375C97.1293 202.23 97.5424 200.318 98.3686 198.639C99.1948 196.96 100.381 195.66 101.926 194.741C103.486 193.821 105.291 193.362 107.343 193.362C110.262 193.362 112.64 194.254 114.479 196.04C116.331 197.826 117.364 200.251 117.577 203.316L117.617 204.795C117.617 208.113 116.691 210.778 114.839 212.79C112.987 214.789 110.501 215.788 107.383 215.788C104.265 215.788 101.773 214.789 99.9077 212.79C98.0554 210.791 97.1293 208.073 97.1293 204.635V204.375ZM102.906 204.795C102.906 206.847 103.292 208.419 104.065 209.512C104.838 210.592 105.944 211.131 107.383 211.131C108.782 211.131 109.875 210.598 110.661 209.532C111.448 208.453 111.841 206.734 111.841 204.375C111.841 202.363 111.448 200.804 110.661 199.698C109.875 198.592 108.769 198.039 107.343 198.039C105.931 198.039 104.838 198.592 104.065 199.698C103.292 200.791 102.906 202.49 102.906 204.795ZM127.551 205.135V215.389H121.555V186.286H132.908C135.094 186.286 137.012 186.686 138.665 187.485C140.331 188.285 141.61 189.424 142.503 190.903C143.395 192.369 143.842 194.041 143.842 195.92C143.842 198.772 142.862 201.024 140.903 202.676C138.958 204.315 136.26 205.135 132.808 205.135H127.551ZM127.551 200.278H132.908C134.494 200.278 135.7 199.904 136.526 199.158C137.366 198.412 137.785 197.346 137.785 195.96C137.785 194.534 137.366 193.382 136.526 192.502C135.687 191.623 134.527 191.17 133.048 191.143H127.551V200.278ZM157.274 215.788C154.102 215.788 151.517 214.816 149.518 212.87C147.533 210.925 146.54 208.333 146.54 205.095V204.535C146.54 202.363 146.96 200.424 147.799 198.719C148.639 197 149.825 195.68 151.357 194.761C152.903 193.828 154.662 193.362 156.634 193.362C159.592 193.362 161.918 194.294 163.61 196.16C165.316 198.026 166.169 200.671 166.169 204.095V206.454H152.397C152.583 207.866 153.143 208.999 154.076 209.852C155.022 210.705 156.214 211.131 157.654 211.131C159.879 211.131 161.618 210.325 162.871 208.713L165.709 211.891C164.843 213.117 163.67 214.076 162.191 214.769C160.712 215.449 159.073 215.788 157.274 215.788ZM156.614 198.039C155.468 198.039 154.535 198.425 153.816 199.198C153.11 199.971 152.657 201.077 152.457 202.516H160.492V202.057C160.465 200.777 160.119 199.791 159.453 199.098C158.786 198.392 157.84 198.039 156.614 198.039ZM176.383 188.445V193.761H180.08V197.999H176.383V208.793C176.383 209.592 176.536 210.165 176.842 210.512C177.149 210.858 177.735 211.031 178.601 211.031C179.241 211.031 179.807 210.985 180.3 210.891V215.269C179.168 215.615 178.002 215.788 176.802 215.788C172.751 215.788 170.686 213.743 170.606 209.652V197.999H167.448V193.761H170.606V188.445H176.383Z" fill="#FAFAFA"/>
</svg>
