<svg width="695" height="518" viewBox="0 0 695 518" fill="none" xmlns="http://www.w3.org/2000/svg">
<path d="M694.902 455.022H0V455.369H694.902V455.022Z" fill="#EBEBEB"/>
<path d="M118.939 468.253H72.9091V468.6H118.939V468.253Z" fill="#EBEBEB"/>
<path d="M249.929 464.487H189.472V464.834H249.929V464.487Z" fill="#EBEBEB"/>
<path d="M167.235 475.424H113.38V475.772H167.235V475.424Z" fill="#EBEBEB"/>
<path d="M625.273 478.829H565.247V479.177H625.273V478.829Z" fill="#EBEBEB"/>
<path d="M552.864 478.829H526.736V479.177H552.864V478.829Z" fill="#EBEBEB"/>
<path d="M382.196 472.964H331.385V473.312H382.196V472.964Z" fill="#EBEBEB"/>
<path d="M329.384 393.037H61.0263C58.924 393.033 56.9091 392.195 55.4239 390.708C53.9386 389.22 53.1044 387.203 53.1044 385.101V7.86629C53.1227 5.77606 53.965 3.77746 55.4483 2.3046C56.9315 0.83174 58.936 0.00358068 61.0263 0H329.384C331.488 0 333.507 0.83609 334.995 2.32434C336.483 3.81259 337.319 5.83108 337.319 7.93578V385.101C337.319 387.206 336.483 389.224 334.995 390.712C333.507 392.201 331.488 393.037 329.384 393.037ZM61.0263 0.277962C59.0162 0.281644 57.0896 1.08275 55.6696 2.50544C54.2495 3.92813 53.4519 5.85615 53.4519 7.86629V385.101C53.4519 387.111 54.2495 389.039 55.6696 390.462C57.0896 391.885 59.0162 392.686 61.0263 392.689H329.384C331.395 392.686 333.323 391.885 334.745 390.463C336.168 389.04 336.968 387.112 336.972 385.101V7.86629C336.968 5.85487 336.168 3.92688 334.745 2.50459C333.323 1.0823 331.395 0.281636 329.384 0.277962H61.0263Z" fill="#EBEBEB"/>
<path d="M630.012 393.037H361.641C359.537 393.033 357.521 392.196 356.034 390.708C354.546 389.221 353.709 387.205 353.705 385.101V7.86629C353.727 5.7748 354.573 3.77621 356.058 2.30373C357.544 0.831254 359.549 0.00354163 361.641 0H630.012C632.1 0.00723323 634.101 0.837009 635.581 2.30948C637.062 3.78195 637.902 5.77846 637.92 7.86629V385.101C637.92 387.201 637.088 389.215 635.606 390.703C634.124 392.19 632.112 393.029 630.012 393.037ZM361.641 0.277962C359.63 0.281636 357.702 1.0823 356.279 2.50459C354.857 3.92688 354.056 5.85487 354.053 7.86629V385.101C354.056 387.112 354.857 389.04 356.279 390.463C357.702 391.885 359.63 392.686 361.641 392.689H630.012C632.024 392.686 633.952 391.885 635.374 390.463C636.796 389.04 637.597 387.112 637.601 385.101V7.86629C637.597 5.85487 636.796 3.92688 635.374 2.50459C633.952 1.0823 632.024 0.281636 630.012 0.277962H361.641Z" fill="#EBEBEB"/>
<path d="M132.504 100.066H92.5332V105.625H132.504V100.066Z" fill="#E6E6E6"/>
<path d="M324.603 100.066H132.504V105.625H324.603V100.066Z" fill="#F0F0F0"/>
<path d="M200.41 30.5758H117.939L126.347 100.066H208.818L200.41 30.5758Z" fill="#F5F5F5"/>
<path d="M190.695 39.679H129.863L136.062 90.9627H196.907L190.695 39.679Z" fill="#FAFAFA"/>
<path d="M281.672 33.7444H216.949L224.982 100.066H289.691L281.672 33.7444Z" fill="#F5F5F5"/>
<path d="M272.402 42.4447H228.317L234.238 91.3797H278.322L272.402 42.4447Z" fill="#FAFAFA"/>
<path d="M496.327 447.517C496.327 446.033 495.887 444.582 495.062 443.347C494.238 442.113 493.065 441.151 491.694 440.583C490.323 440.015 488.814 439.867 487.358 440.156C485.902 440.446 484.565 441.161 483.515 442.21C482.466 443.26 481.751 444.597 481.461 446.053C481.172 447.509 481.32 449.018 481.888 450.389C482.456 451.76 483.418 452.932 484.653 453.757C485.887 454.582 487.338 455.022 488.822 455.022C490.813 455.022 492.721 454.231 494.129 452.824C495.536 451.416 496.327 449.507 496.327 447.517Z" fill="#E0E0E0"/>
<path d="M490.837 447.517C490.837 446.032 490.397 444.581 489.572 443.346C488.746 442.112 487.573 441.15 486.201 440.582C484.829 440.014 483.319 439.867 481.863 440.157C480.407 440.448 479.07 441.164 478.021 442.215C476.972 443.266 476.258 444.605 475.97 446.061C475.682 447.518 475.833 449.028 476.403 450.399C476.973 451.77 477.937 452.941 479.173 453.764C480.409 454.587 481.861 455.025 483.346 455.022C484.331 455.022 485.306 454.828 486.216 454.45C487.126 454.073 487.952 453.52 488.648 452.823C489.344 452.126 489.895 451.298 490.271 450.388C490.647 449.478 490.839 448.502 490.837 447.517Z" fill="#EBEBEB"/>
<path d="M468.114 447.517C468.114 446.033 467.674 444.582 466.849 443.347C466.024 442.113 464.852 441.151 463.481 440.583C462.11 440.015 460.601 439.867 459.145 440.156C457.689 440.446 456.352 441.161 455.302 442.21C454.253 443.26 453.538 444.597 453.248 446.053C452.959 447.509 453.107 449.018 453.675 450.389C454.243 451.76 455.205 452.932 456.439 453.757C457.674 454.582 459.125 455.022 460.609 455.022C462.599 455.022 464.508 454.231 465.916 452.824C467.323 451.416 468.114 449.507 468.114 447.517Z" fill="#E0E0E0"/>
<path d="M462.624 447.517C462.624 446.032 462.184 444.581 461.359 443.346C460.533 442.112 459.36 441.15 457.988 440.582C456.616 440.014 455.106 439.867 453.65 440.157C452.194 440.448 450.857 441.164 449.808 442.215C448.759 443.266 448.045 444.605 447.757 446.061C447.469 447.518 447.62 449.028 448.19 450.399C448.76 451.77 449.724 452.941 450.96 453.764C452.196 454.587 453.648 455.025 455.133 455.022C456.118 455.022 457.093 454.828 458.003 454.45C458.913 454.073 459.739 453.52 460.435 452.823C461.131 452.126 461.683 451.298 462.058 450.388C462.434 449.478 462.626 448.502 462.624 447.517Z" fill="#EBEBEB"/>
<path d="M606.886 447.517C606.886 446.032 606.446 444.581 605.62 443.346C604.795 442.112 603.622 441.15 602.25 440.582C600.878 440.014 599.368 439.867 597.912 440.157C596.456 440.448 595.118 441.164 594.069 442.215C593.02 443.266 592.307 444.605 592.019 446.061C591.731 447.518 591.881 449.028 592.451 450.399C593.022 451.77 593.986 452.941 595.222 453.764C596.458 454.587 597.91 455.025 599.395 455.022C600.38 455.022 601.355 454.828 602.265 454.45C603.175 454.073 604.001 453.52 604.697 452.823C605.393 452.126 605.944 451.298 606.32 450.388C606.695 449.478 606.888 448.502 606.886 447.517Z" fill="#E0E0E0"/>
<path d="M601.41 447.517C601.41 446.033 600.97 444.582 600.145 443.347C599.321 442.113 598.148 441.151 596.777 440.583C595.406 440.015 593.897 439.867 592.441 440.156C590.985 440.446 589.648 441.161 588.598 442.21C587.549 443.26 586.834 444.597 586.544 446.053C586.255 447.509 586.403 449.018 586.971 450.389C587.539 451.76 588.501 452.932 589.736 453.757C590.97 454.582 592.421 455.022 593.905 455.022C595.896 455.022 597.804 454.231 599.212 452.824C600.619 451.416 601.41 449.507 601.41 447.517Z" fill="#EBEBEB"/>
<path d="M578.673 447.517C578.673 446.032 578.232 444.581 577.407 443.346C576.582 442.112 575.409 441.15 574.037 440.582C572.665 440.014 571.155 439.867 569.699 440.157C568.242 440.448 566.905 441.164 565.856 442.215C564.807 443.266 564.093 444.605 563.805 446.061C563.517 447.518 563.668 449.028 564.238 450.399C564.808 451.77 565.772 452.941 567.009 453.764C568.245 454.587 569.697 455.025 571.182 455.022C572.167 455.022 573.142 454.828 574.052 454.45C574.961 454.073 575.788 453.52 576.484 452.823C577.179 452.126 577.731 451.298 578.107 450.388C578.482 449.478 578.675 448.502 578.673 447.517Z" fill="#E0E0E0"/>
<path d="M573.197 447.517C573.197 446.033 572.757 444.582 571.932 443.347C571.108 442.113 569.936 441.151 568.564 440.583C567.193 440.015 565.684 439.867 564.228 440.156C562.772 440.446 561.435 441.161 560.385 442.21C559.336 443.26 558.621 444.597 558.332 446.053C558.042 447.509 558.191 449.018 558.759 450.389C559.327 451.76 560.289 452.932 561.523 453.757C562.757 454.582 564.208 455.022 565.692 455.022C567.683 455.022 569.592 454.231 570.999 452.824C572.406 451.416 573.197 449.507 573.197 447.517Z" fill="#EBEBEB"/>
<path d="M483.346 244.23H445.043V442.889H483.346V244.23Z" fill="#EBEBEB"/>
<path d="M483.346 442.875H608.429V244.216L483.346 244.216V442.875Z" fill="#F5F5F5"/>
<path d="M490.142 436.329H601.632V250.79H490.142V436.329Z" fill="#EBEBEB"/>
<path d="M492.922 300.504H598.853V253.862H492.922V300.504Z" fill="#F5F5F5"/>
<path d="M492.922 349.23H598.853V302.588H492.922V349.23Z" fill="#F5F5F5"/>
<path d="M492.922 433.619H598.853V351.315H492.922V433.619Z" fill="#F5F5F5"/>
<path d="M564.261 357.916H527.459C527.09 357.916 526.737 357.77 526.476 357.509C526.215 357.249 526.069 356.895 526.069 356.527C526.069 356.158 526.215 355.804 526.476 355.544C526.737 355.283 527.09 355.137 527.459 355.137H564.261C564.629 355.137 564.983 355.283 565.243 355.544C565.504 355.804 565.65 356.158 565.65 356.527C565.65 356.895 565.504 357.249 565.243 357.509C564.983 357.77 564.629 357.916 564.261 357.916Z" fill="#FAFAFA"/>
<path d="M564.261 309.315H527.459C527.09 309.315 526.737 309.168 526.476 308.908C526.215 308.647 526.069 308.294 526.069 307.925C526.069 307.556 526.215 307.203 526.476 306.942C526.737 306.682 527.09 306.535 527.459 306.535H564.261C564.629 306.535 564.983 306.682 565.243 306.942C565.504 307.203 565.65 307.556 565.65 307.925C565.65 308.294 565.504 308.647 565.243 308.908C564.983 309.168 564.629 309.315 564.261 309.315Z" fill="#FAFAFA"/>
<path d="M564.261 260.588H527.459C527.09 260.588 526.737 260.442 526.476 260.181C526.215 259.921 526.069 259.567 526.069 259.199C526.069 258.83 526.215 258.477 526.476 258.216C526.737 257.955 527.09 257.809 527.459 257.809H564.261C564.629 257.809 564.983 257.955 565.243 258.216C565.504 258.477 565.65 258.83 565.65 259.199C565.65 259.567 565.504 259.921 565.243 260.181C564.983 260.442 564.629 260.588 564.261 260.588Z" fill="#FAFAFA"/>
<path d="M474.201 232.903H470.921C470.184 232.903 469.587 233.501 469.587 234.238V234.307C469.587 235.044 470.184 235.641 470.921 235.641H474.201C474.938 235.641 475.536 235.044 475.536 234.307V234.238C475.536 233.501 474.938 232.903 474.201 232.903Z" fill="#E0E0E0"/>
<path d="M409.992 116.744L446.6 153.351C451.274 148.46 453.847 141.934 453.771 135.169C453.694 128.404 450.972 121.938 446.189 117.155C441.405 112.371 434.939 109.65 428.174 109.573C421.41 109.496 414.883 112.07 409.992 116.744Z" fill="#E6E6E6"/>
<path d="M460.79 121.024L446.516 135.297L428.06 116.813L442.333 102.54C443.545 101.324 444.986 100.359 446.572 99.7004C448.158 99.042 449.858 98.7031 451.575 98.7031C453.292 98.7031 454.993 99.042 456.579 99.7004C458.165 100.359 459.605 101.324 460.817 102.54C462.032 103.754 462.994 105.196 463.65 106.783C464.306 108.37 464.643 110.071 464.64 111.788C464.638 113.505 464.296 115.205 463.635 116.79C462.975 118.375 462.008 119.814 460.79 121.024Z" fill="#E6E6E6"/>
<path d="M462.993 100.088L460.811 102.27L521.741 163.2L523.923 161.018L462.993 100.088Z" fill="#E6E6E6"/>
<path d="M524.4 163.146L521.746 161.573L477.793 235.687L480.446 237.261L524.4 163.146Z" fill="#E6E6E6"/>
<path d="M460.79 107.863C463.729 107.863 466.113 105.48 466.113 102.54C466.113 99.6 463.729 97.2168 460.79 97.2168C457.85 97.2168 455.467 99.6 455.467 102.54C455.467 105.48 457.85 107.863 460.79 107.863Z" fill="#E6E6E6"/>
<path d="M526.263 162.148C526.263 162.822 526.063 163.481 525.689 164.042C525.314 164.602 524.781 165.038 524.158 165.296C523.535 165.553 522.85 165.62 522.189 165.487C521.528 165.354 520.921 165.029 520.446 164.551C519.97 164.074 519.647 163.466 519.517 162.804C519.387 162.143 519.457 161.458 519.717 160.836C519.976 160.214 520.415 159.683 520.977 159.311C521.539 158.938 522.198 158.741 522.872 158.743C523.319 158.743 523.761 158.832 524.173 159.003C524.586 159.174 524.96 159.425 525.275 159.742C525.59 160.058 525.84 160.433 526.009 160.846C526.179 161.26 526.265 161.702 526.263 162.148Z" fill="#E6E6E6"/>
<path d="M492.491 234.266H467.391L465.418 244.216H494.451L492.491 234.266Z" fill="#E6E6E6"/>
<path d="M382.113 285.841H88.6417V334.22H382.113V285.841Z" fill="#EBEBEB"/>
<path d="M378.583 288.718H270.623V331.343H378.583V288.718Z" fill="#F5F5F5"/>
<path d="M266.787 288.718H158.827V331.343H266.787V288.718Z" fill="#F5F5F5"/>
<path d="M148.209 455.022H141.718L155.575 334.22H162.065L148.209 455.022Z" fill="#F5F5F5"/>
<path d="M91.1295 455.022H84.6391L98.4954 334.22H104.986L91.1295 455.022Z" fill="#F5F5F5"/>
<path d="M322.56 455.022H329.036L315.18 334.22H308.703L322.56 455.022Z" fill="#F5F5F5"/>
<path d="M379.639 455.022H386.129L372.273 334.22H365.783L379.639 455.022Z" fill="#F5F5F5"/>
<path d="M230.249 232.556H207.553L198.103 285.841H220.798L230.249 232.556Z" fill="#E0E0E0"/>
<path d="M280.727 186.234H153.796L157.646 263.451H284.59L280.727 186.234Z" fill="#E6E6E6"/>
<path d="M277.808 188.068H156.895L160.564 261.617H281.477L277.808 188.068Z" fill="#FAFAFA"/>
<path d="M390.799 244.23H346.965C339.245 244.34 331.78 247.011 325.743 251.823C319.706 256.635 315.438 263.317 313.609 270.817L302.032 319.183L278.239 319.099H278.169C272.668 319.096 267.337 321.013 263.098 324.519C258.858 328.026 255.975 332.902 254.946 338.306L251.777 354.859C249.382 355.225 247.149 356.294 245.36 357.929C243.572 359.564 242.308 361.692 241.729 364.045H359.32C367.042 363.953 374.514 361.291 380.554 356.478C386.595 351.666 390.86 344.979 392.675 337.472L409.353 267.982C410.1 265.16 410.183 262.204 409.597 259.344C409.011 256.485 407.77 253.8 405.973 251.5C404.176 249.199 401.872 247.346 399.239 246.085C396.607 244.824 393.718 244.189 390.799 244.23ZM275.654 354.734H258.059L261.019 339.446C261.784 335.46 263.913 331.866 267.04 329.279C270.167 326.692 274.097 325.275 278.155 325.27L300.476 325.339L297.696 337.111C296.497 342.077 293.681 346.504 289.691 349.694C285.7 352.885 280.762 354.658 275.654 354.734Z" fill="#E6E6E6"/>
<path d="M356.346 364.045H361.377L381.14 455.022H376.123L356.346 364.045Z" fill="#E0E0E0"/>
<path d="M337.5 364.045H342.531L362.294 455.022H357.263L337.5 364.045Z" fill="#E0E0E0"/>
<path d="M263.549 364.045H258.531L238.768 455.022H243.786L263.549 364.045Z" fill="#E0E0E0"/>
<path d="M282.394 364.045H277.377L257.614 455.022H262.631L282.394 364.045Z" fill="#E0E0E0"/>
<path d="M347.451 517.786C496.275 517.786 616.92 510.742 616.92 502.053C616.92 493.364 496.275 486.32 347.451 486.32C198.627 486.32 77.9819 493.364 77.9819 502.053C77.9819 510.742 198.627 517.786 347.451 517.786Z" fill="#F5F5F5"/>
<path d="M375.484 87.641C375.192 88.4471 374.511 89.0308 373.983 88.7945C373.454 88.5582 373.274 87.8355 373.566 87.0156C373.858 86.1956 374.539 85.6257 375.067 85.8481C375.595 86.0705 375.789 86.821 375.484 87.641Z" fill="#263238"/>
<path d="M374.594 88.9474C372.713 91.1206 370.555 93.0365 368.173 94.6456C368.587 95.2245 369.125 95.7035 369.748 96.0474C370.371 96.3913 371.063 96.5914 371.773 96.633L374.594 88.9474Z" fill="#FF5652"/>
<path d="M380.112 84.0831C380.042 84.0773 379.974 84.0555 379.914 84.0194C379.853 83.9832 379.802 83.9337 379.764 83.8747C379.416 83.3558 378.947 82.9292 378.397 82.6315C377.848 82.3337 377.234 82.1737 376.609 82.1652C376.545 82.169 376.481 82.1596 376.42 82.1375C376.359 82.1155 376.304 82.0813 376.257 82.037C376.21 81.9928 376.173 81.9394 376.147 81.8802C376.122 81.8209 376.109 81.7571 376.109 81.6927C376.109 81.5573 376.161 81.427 376.254 81.3287C376.347 81.2304 376.474 81.1717 376.609 81.1646C377.399 81.1663 378.177 81.3609 378.874 81.7315C379.572 82.102 380.168 82.6374 380.612 83.2909C380.682 83.4025 380.707 83.5368 380.681 83.6662C380.655 83.7955 380.581 83.9099 380.473 83.9858C380.37 84.0638 380.24 84.0987 380.112 84.0831Z" fill="#263238"/>
<path d="M397.484 101.97C394.774 109.489 391.063 123.429 395.677 129.155C395.677 129.155 392.356 136.729 377.985 135.145C362.169 133.421 371.634 126.472 371.634 126.472C380.57 125.374 381.362 118.981 380.765 112.838L397.484 101.97Z" fill="#FF8B7B"/>
<path d="M398.985 132.031C400.542 129.696 402.265 127.014 399.485 125.93C396.414 124.735 379.153 122.456 372.94 123.818C366.728 125.18 367.84 130.225 367.84 130.225L398.985 132.031Z" fill="#874CF0"/>
<path d="M338.431 490.712C337.042 490.712 335.763 490.518 335.346 489.906C335.239 489.739 335.189 489.543 335.201 489.346C335.214 489.148 335.289 488.96 335.416 488.808C335.606 488.518 335.899 488.31 336.235 488.224C338.028 487.738 341.656 489.864 341.795 489.948C341.837 489.976 341.869 490.017 341.889 490.063C341.909 490.11 341.915 490.162 341.906 490.212C341.893 490.261 341.867 490.305 341.83 490.34C341.793 490.374 341.747 490.397 341.697 490.406C340.62 490.605 339.527 490.707 338.431 490.712ZM336.833 488.655C336.672 488.633 336.508 488.633 336.347 488.655C336.136 488.699 335.952 488.824 335.832 489.003C335.652 489.322 335.707 489.475 335.832 489.559C336.305 490.254 338.987 490.267 340.975 489.99C339.7 489.267 338.29 488.812 336.833 488.655Z" fill="#874CF0"/>
<path d="M341.656 490.42H341.558C340.294 489.85 337.862 487.543 338.098 486.348C338.098 486.056 338.376 485.709 339.071 485.639C339.32 485.61 339.572 485.633 339.811 485.707C340.051 485.782 340.272 485.905 340.46 486.07C341.767 487.182 341.934 490.045 341.934 490.17C341.935 490.213 341.925 490.256 341.906 490.295C341.886 490.334 341.858 490.367 341.822 490.392C341.798 490.408 341.771 490.419 341.742 490.424C341.713 490.429 341.684 490.427 341.656 490.42ZM339.251 486.112H339.112C338.654 486.112 338.626 486.334 338.612 486.404C338.459 487.112 340.113 488.933 341.392 489.711C341.317 488.514 340.876 487.369 340.127 486.431C339.886 486.219 339.573 486.104 339.251 486.112Z" fill="#874CF0"/>
<path d="M353.372 465.543H342.74V490.17H353.372V465.543Z" fill="#FF8B7B"/>
<path d="M430.52 478.426L419.902 479.58L412.967 455.675L423.585 454.522L430.52 478.426Z" fill="#FF8B7B"/>
<path d="M414.954 481.998C413.564 482.332 412.286 482.484 411.73 481.998C411.587 481.864 411.49 481.689 411.452 481.497C411.415 481.305 411.439 481.106 411.521 480.928C411.636 480.593 411.875 480.315 412.188 480.15C413.828 479.246 417.9 480.386 418.067 480.441C418.114 480.455 418.157 480.481 418.189 480.519C418.221 480.556 418.241 480.601 418.248 480.65C418.25 480.702 418.236 480.754 418.209 480.798C418.182 480.843 418.142 480.878 418.095 480.9C417.084 481.362 416.032 481.729 414.954 481.998ZM412.883 480.414C412.719 480.455 412.56 480.515 412.411 480.594C412.315 480.639 412.231 480.703 412.161 480.782C412.092 480.861 412.04 480.953 412.008 481.053C411.896 481.4 412.008 481.539 412.077 481.609C412.702 482.151 415.329 481.498 417.219 480.747C415.809 480.355 414.336 480.242 412.883 480.414Z" fill="#874CF0"/>
<path d="M418.039 480.872H417.942C416.552 480.636 413.606 479.024 413.55 477.815C413.55 477.523 413.661 477.134 414.329 476.898C414.554 476.816 414.793 476.781 415.032 476.795C415.271 476.809 415.505 476.873 415.718 476.981C417.275 477.718 418.137 480.428 418.178 480.539C418.198 480.578 418.208 480.62 418.208 480.664C418.208 480.707 418.198 480.75 418.178 480.789C418.141 480.829 418.093 480.858 418.039 480.872ZM414.62 477.328H414.468C414.037 477.495 414.051 477.662 414.051 477.731C414.051 478.454 416.149 479.774 417.595 480.219C417.226 479.099 416.51 478.126 415.552 477.44C415.257 477.314 414.928 477.295 414.62 477.384V477.328Z" fill="#874CF0"/>
<path d="M419.332 478.593L430.951 475.258C431.149 475.196 431.363 475.207 431.553 475.289C431.744 475.37 431.9 475.517 431.993 475.702L436.288 484.194C436.387 484.41 436.437 484.645 436.435 484.883C436.434 485.12 436.38 485.355 436.278 485.569C436.176 485.784 436.028 485.974 435.845 486.125C435.662 486.276 435.447 486.386 435.217 486.445C431.145 487.543 429.116 487.835 424.002 489.336C420.861 490.24 414.468 492.422 410.104 493.672C405.74 494.923 404.141 490.893 405.823 489.948C413.37 485.931 415.788 482.707 417.775 479.705C418.146 479.162 418.698 478.768 419.332 478.593Z" fill="#263238"/>
<path d="M342.851 488.933H354.47C354.677 488.933 354.878 489.005 355.038 489.137C355.198 489.269 355.306 489.452 355.345 489.656L357.027 499.121C357.065 499.354 357.052 499.593 356.989 499.821C356.926 500.049 356.813 500.26 356.66 500.44C356.506 500.62 356.315 500.764 356.1 500.863C355.885 500.961 355.651 501.012 355.415 501.011C351.245 500.927 345.186 500.691 339.918 500.691C333.762 500.691 330.398 501.025 323.171 501.025C318.807 501.025 317.793 496.605 319.641 496.216C327.98 494.395 332.872 494.201 340.252 489.767C341.026 489.258 341.925 488.969 342.851 488.933Z" fill="#263238"/>
<path d="M401.39 149.029C400.472 149.446 399.861 149.696 399.11 150.015L396.984 150.849C395.594 151.377 394.135 151.864 392.717 152.336C389.868 153.24 387.019 154.06 384.142 154.769C381.265 155.477 378.388 156.158 375.511 156.687C374.122 156.964 372.607 157.201 371.161 157.451C370.034 157.677 368.891 157.811 367.742 157.854C366.539 157.863 365.338 157.751 364.157 157.52C362.229 157.102 360.361 156.443 358.597 155.561C357.049 154.81 355.558 153.946 354.136 152.976C351.536 151.191 349.083 149.202 346.798 147.027C342.426 142.908 338.491 138.348 335.054 133.421L340.975 128.07C345.255 131.448 349.731 134.88 354.164 137.799C356.302 139.218 358.525 140.504 360.821 141.649C362.588 142.617 364.521 143.244 366.519 143.497C366.741 143.524 366.965 143.524 367.186 143.497C367.367 143.428 367.02 143.497 367.979 143.219L371.953 142.024C374.608 141.26 377.221 140.384 379.834 139.564C382.447 138.744 385.032 137.855 387.589 136.965L391.397 135.575L394.941 134.283L401.39 149.029Z" fill="#FF8B7B"/>
<path d="M342.726 130.1L339.085 123.151L329.481 130.405C331.509 132.84 334.251 134.576 337.32 135.367L342.726 130.1Z" fill="#FF8B7B"/>
<path d="M332.288 118.814L325.478 124.846L329.481 130.405L339.085 123.151L332.288 118.814Z" fill="#FF8B7B"/>
<path d="M410.062 145.79C407.074 155.519 377.388 162.19 377.388 162.19L364.212 140.037C364.212 140.037 378.11 135.867 390.313 131.614C403.043 127.139 413.106 135.895 410.062 145.79Z" fill="#263238"/>
<path d="M275.668 132.49L295.917 127.334C304.256 134.658 299.447 148.779 299.447 148.779C299.447 148.779 308.634 153.657 307.022 156.52C305.41 159.383 286.8 150.808 279.059 142.497C271.318 134.186 275.668 132.49 275.668 132.49Z" fill="#874CF0"/>
<path opacity="0.2" d="M275.668 132.49L295.917 127.334C304.256 134.658 299.447 148.779 299.447 148.779C299.447 148.779 308.634 153.657 307.022 156.52C305.41 159.383 286.8 150.808 279.059 142.497C271.318 134.186 275.668 132.49 275.668 132.49Z" fill="black"/>
<path d="M312.553 120.44L318.557 104.847C318.557 104.847 325.84 113.644 329.05 115.687C330.773 116.785 336.124 114.534 340.683 114.895C342.74 115.048 346.242 117.383 343.949 119.94C341.656 122.497 337.139 119.37 334.22 121.33C329.384 124.554 321.045 128.779 312.553 120.44Z" fill="#874CF0"/>
<path opacity="0.2" d="M312.553 120.44L318.557 104.847C318.557 104.847 325.84 113.644 329.05 115.687C330.773 116.785 336.124 114.534 340.683 114.895C342.74 115.048 346.242 117.383 343.949 119.94C341.656 122.497 337.139 119.37 334.22 121.33C329.384 124.554 321.045 128.779 312.553 120.44Z" fill="black"/>
<path d="M306.508 72.2698C304.645 77.3704 308.481 79.886 311.052 78.9826C316.181 77.1619 323.366 80.97 324.547 77.2453C325.729 73.5206 325.687 65.0011 321.768 65.015C317.848 65.0289 308.537 66.5855 306.508 72.2698Z" fill="#263238"/>
<path d="M274.792 149.098C284.021 154.199 324.144 136.812 328.995 90.1009C328.995 90.1009 340.113 87.3213 342.365 82.8184C343.977 79.6635 341.989 76.1195 340.363 74.3267L339.932 73.868C339.495 73.4198 338.898 73.1614 338.272 73.1484C337.645 73.1354 337.039 73.3689 336.583 73.7985C336.152 74.2016 335.666 74.6463 335.193 75.0772C333.825 76.3898 332.154 77.3446 330.329 77.8568C321.99 79.2466 320.6 71.6443 315.319 69.7125C310.038 67.7807 296.835 74.3823 299.03 84.639C301.226 94.8958 302.06 100.358 300.712 102.47C298.719 104.277 296.527 105.853 294.18 107.168L294.069 107.237C288.51 110.712 280.727 115.27 274.612 118.55C271.721 120.093 269.233 121.33 267.565 122.066C259.894 125.249 261.784 141.941 274.792 149.098Z" fill="#874CF0"/>
<path d="M329.189 89.976C333.885 89.4449 338.531 88.5481 343.087 87.2937C345.283 86.571 345.13 90.7265 343.935 91.8661C339.321 96.2579 327.091 98.2175 327.091 98.2175C327.091 98.2175 326.146 90.7821 329.189 89.976Z" fill="#874CF0"/>
<path d="M345.589 89.4894C344.882 88.7593 344 88.2207 343.028 87.9241C342.056 87.6276 341.024 87.5827 340.03 87.7939L334.47 89.1837C334.47 89.1837 342.615 93.4921 344.018 95.1737C345.422 96.8554 348.674 92.8528 345.589 89.4894Z" fill="#874CF0"/>
<path d="M345.589 89.4894C344.882 88.7593 344 88.2207 343.028 87.9241C342.056 87.6276 341.024 87.5827 340.03 87.7939L334.47 89.1837C334.47 89.1837 342.615 93.4921 344.018 95.1737C345.422 96.8554 348.674 92.8528 345.589 89.4894Z" fill="#874CF0"/>
<path opacity="0.5" d="M345.589 89.4894C344.882 88.7593 344 88.2207 343.028 87.9241C342.056 87.6276 341.024 87.5827 340.03 87.7939L334.47 89.1837C334.47 89.1837 342.615 93.4921 344.018 95.1737C345.422 96.8554 348.674 92.8528 345.589 89.4894Z" fill="white"/>
<path d="M339.21 78.927C337.083 80.97 334.345 81.5676 333.095 80.3168C331.844 79.066 332.553 76.3003 334.679 74.2572C336.805 72.2142 339.543 71.6166 340.794 72.8674C342.045 74.1183 341.336 76.884 339.21 78.927Z" fill="#263238"/>
<path d="M304.742 121.33L318.918 112.505C318.918 112.505 319.433 123.915 320.767 127.487C321.476 129.391 327.091 130.822 330.496 133.852C332.038 135.242 333.442 139.203 330.065 139.856C326.687 140.509 324.964 135.284 321.378 135.089C315.708 134.811 306.494 133.088 304.742 121.33Z" fill="#874CF0"/>
<path d="M300.198 76.4392C301.181 73.762 302.588 71.2606 304.367 69.0315C304.451 69.9905 304.882 71.7278 306.16 70.7966C306.901 70.3282 307.517 69.6857 307.953 68.9251C308.389 68.1645 308.632 67.3088 308.662 66.4326C309.285 66.5704 309.839 66.926 310.224 67.4355C310.608 67.945 310.799 68.575 310.76 69.2122C310.76 69.2122 314.318 68.4478 313.762 65.5848C317.154 66.9746 316.542 69.5736 315.333 70.5325C314.124 71.4915 299.156 79.8581 300.198 76.4392Z" fill="#874CF0"/>
<path d="M314.68 80.3029C313.993 80.1995 313.295 80.1995 312.609 80.3029H312.247C312.167 80.207 312.101 80.0991 312.053 79.9832C311.897 79.6176 311.89 79.2056 312.032 78.8346C312.175 78.4635 312.457 78.1627 312.817 77.9958C313.116 77.8782 313.444 77.8575 313.755 77.9366C314.066 78.0157 314.344 78.1906 314.55 78.4366C314.756 78.6826 314.879 78.9871 314.902 79.3071C314.926 79.6271 314.848 79.9463 314.68 80.2195V80.3029Z" fill="#263238"/>
<path d="M321.629 76.8979C321.905 76.4339 322.268 76.028 322.699 75.7026L322.935 75.5359C322.904 75.4233 322.857 75.3157 322.796 75.2162C322.622 74.8861 322.343 74.6227 322.004 74.4669C321.665 74.3111 321.284 74.2716 320.92 74.3545C320.769 74.4205 320.635 74.5205 320.529 74.6466C320.423 74.7727 320.348 74.9216 320.309 75.0817C320.27 75.2417 320.268 75.4086 320.304 75.5694C320.34 75.7301 320.413 75.8804 320.517 76.0084C320.757 76.4385 321.156 76.7576 321.629 76.8979Z" fill="#263238"/>
<path d="M330.913 98.2313C330.913 98.2313 312.984 102.651 300.476 99.4543C299.864 100.372 297.835 104.444 297.835 104.444C297.835 104.444 316.167 114.284 327.785 115.715C330.106 111.129 328.23 107.835 329.995 106.195C331.288 103.818 330.913 98.2313 330.913 98.2313Z" fill="#263238"/>
<path d="M277.53 118.675C269.511 122.567 252.819 123.415 241.298 114.284C241.783 115.897 242.431 117.457 243.23 118.94C242.368 118.495 241.451 118.008 240.45 117.466C241.363 119.365 242.857 120.923 244.717 121.914C243.752 121.688 242.772 121.535 241.784 121.455C243.353 123.216 245.485 124.376 247.816 124.735C246.562 124.773 245.315 124.932 244.091 125.208C246.033 126.398 248.323 126.888 250.582 126.597C249.657 126.929 248.76 127.334 247.899 127.807C249.906 128.374 252.043 128.271 253.987 127.515C253.667 127.723 253.348 127.932 253.028 128.182C254.551 128.409 256.108 128.182 257.503 127.529C257.17 127.793 256.85 128.057 256.516 128.362C258.019 128.445 259.513 128.083 260.811 127.32C265.918 126.621 270.881 125.116 275.515 122.859L277.53 118.675Z" fill="#874CF0"/>
<path d="M306.925 76.2308C302.144 72.0614 297.502 74.841 296.432 77.6206C294.291 83.1798 286.703 88.739 290.33 91.6715C293.958 94.604 303.825 98.4815 306.118 94.7013C308.412 90.921 312.275 80.9144 306.925 76.2308Z" fill="#263238"/>
<path d="M270.72 132.629L291.567 134.422C297.029 144.067 287.856 155.825 287.856 155.825C287.856 155.825 294.944 163.441 292.471 165.554C289.997 167.666 275.181 153.587 270.623 143.15C266.064 132.712 270.72 132.629 270.72 132.629Z" fill="#874CF0"/>
<path d="M358.903 145.318C356.124 148.014 353.344 150.307 350.564 152.684C347.785 155.06 344.797 157.242 341.809 159.424C335.721 163.856 329.235 167.713 322.435 170.946C320.725 171.794 318.835 172.475 317.014 173.225C315.867 173.669 314.657 173.927 313.429 173.99C312.165 174.041 310.901 173.881 309.69 173.517C307.852 172.921 306.174 171.913 304.784 170.571C302.991 168.809 301.51 166.755 300.406 164.497C299.492 162.672 298.703 160.787 298.044 158.855C295.697 151.742 294.24 144.366 293.707 136.896L301.518 135.27C303.844 141.625 306.531 147.843 309.565 153.893C310.27 155.227 311.055 156.517 311.914 157.757C312.459 158.65 313.171 159.428 314.012 160.05C314.207 160.175 314.207 160.05 313.637 159.772C312.946 159.55 312.202 159.55 311.511 159.772C312.901 159.035 314.29 158.382 315.68 157.59C321.453 154.3 326.972 150.584 332.191 146.471C334.887 144.428 337.528 142.302 340.169 140.12C342.809 137.938 345.422 135.659 347.813 133.546L358.903 145.318Z" fill="#FF8B7B"/>
<path d="M354.928 127.612C354.928 127.612 341.711 139.008 340.182 218.463L396.72 224.718C397.47 214.753 399.319 181.203 410.395 145.012C410.865 143.489 411.014 141.885 410.833 140.301C410.651 138.717 410.144 137.189 409.342 135.811C408.54 134.433 407.462 133.237 406.174 132.297C404.887 131.357 403.418 130.694 401.862 130.35C399.861 129.905 397.762 129.488 395.663 129.155C387.712 127.799 379.689 126.903 371.634 126.472C366.044 126.426 360.46 126.807 354.928 127.612Z" fill="#263238"/>
<path d="M405.337 132.282C402.557 178.145 348.146 191.418 340.961 192.96C340.74 193.005 340.542 193.126 340.4 193.301C340.258 193.475 340.181 193.694 340.182 193.919V195.309C340.183 195.457 340.217 195.604 340.281 195.737C340.346 195.871 340.44 195.988 340.556 196.08C340.672 196.172 340.808 196.237 340.952 196.269C341.097 196.302 341.247 196.302 341.392 196.268C350.272 194.142 405.323 179.201 407.963 133.963C407.971 133.729 407.918 133.496 407.811 133.287C407.704 133.078 407.546 132.899 407.352 132.768L406.115 131.948C406.045 131.9 405.965 131.87 405.88 131.862C405.796 131.854 405.711 131.867 405.634 131.9C405.556 131.933 405.488 131.986 405.436 132.052C405.384 132.119 405.35 132.198 405.337 132.282Z" fill="#874CF0"/>
<path d="M348.216 191.64C348.216 191.64 370.536 185.191 376.776 179.285C375.706 185.692 373.997 193.419 364.268 197.964C354.539 202.508 345.436 198.047 348.216 191.64Z" fill="#874CF0"/>
<path opacity="0.3" d="M358.361 192.238C358.264 193.405 357.791 194.35 357.291 194.35C356.791 194.35 356.457 193.405 356.554 192.238C356.652 191.07 357.11 190.125 357.611 190.125C358.111 190.125 358.445 191.07 358.361 192.238Z" fill="black"/>
<path d="M366.269 141.399C365.963 151.419 340.822 169.195 340.822 169.195L323.644 147.361C331.879 142.529 339.828 137.225 347.451 131.476C361.975 120.093 366.519 133.268 366.269 141.399Z" fill="#263238"/>
<path d="M294.486 140.287L286.564 132.81L295.903 126.486C295.903 126.486 301.24 130.155 301.907 135.464C301.982 136.257 301.767 137.05 301.302 137.697C300.837 138.343 300.153 138.799 299.378 138.98L294.486 140.287Z" fill="#FF8B7B"/>
<path d="M282.061 127.709L290.483 122.636L295.903 126.486L286.564 132.81L282.061 127.709Z" fill="#FF8B7B"/>
<path opacity="0.2" d="M353.372 465.543H342.74V478.232H353.372V465.543Z" fill="black"/>
<path opacity="0.2" d="M423.599 454.535L412.967 455.675L416.816 468.934L427.17 466.849L423.599 454.535Z" fill="black"/>
<path d="M403.113 94.6318C398.832 104.36 396.817 110.337 389.91 113.839C379.528 119.106 368.938 110.573 370.23 99.8435C371.397 90.1149 378.208 75.8138 389.395 74.9799C391.82 74.756 394.26 75.1782 396.469 76.2035C398.677 77.2288 400.575 78.8206 401.968 80.8172C403.362 82.8137 404.202 85.1437 404.403 87.5702C404.604 89.9967 404.159 92.4331 403.113 94.6318Z" fill="#FF8B7B"/>
<path d="M380.695 94.5762C380.251 92.7 380.056 84.8476 386.032 82.6239C392.008 80.4002 405.35 86.974 407.213 93.2837C409.075 99.5934 400.945 109.711 395.33 111.351C389.715 112.991 380.056 113.158 380.695 94.5762Z" fill="#263238"/>
<path d="M386.088 85.1394C379.139 80.1917 376.192 76.0918 381.432 72.52C381.657 72.3527 381.914 72.2339 382.188 72.1711C382.461 72.1083 382.744 72.1028 383.02 72.1551C383.296 72.2073 383.557 72.3161 383.789 72.4746C384.02 72.6331 384.216 72.8378 384.364 73.0759C384.364 73.0759 380.264 69.3373 384.364 65.6682C388.464 61.9991 390.73 69.3095 390.73 69.3095C390.73 69.3095 388.784 63.4584 394.524 63.6252C400.264 63.792 400.18 70.4908 400.18 70.4908C400.18 70.4908 401.153 66.0157 406.476 67.1831C413.008 68.5729 414.162 82.6239 409.951 91.5881C418.442 92.3942 415.857 102.415 403.822 101.97C391.786 101.525 383.155 93.7284 386.088 85.1394Z" fill="#263238"/>
<path d="M407.991 92.0745C407.991 92.0745 413.856 87.641 414.94 81.4564C415.149 91.3379 410.368 92.1301 407.991 92.0745Z" fill="#263238"/>
<path d="M385.254 95.424C383.801 97.6719 381.676 99.4035 379.18 100.372C375.9 101.609 374.538 99.1209 375.706 96.2023C376.748 93.5339 379.708 89.698 382.891 89.698C386.074 89.698 386.963 92.7 385.254 95.424Z" fill="#FF8B7B"/>
<path d="M360.237 220.687C360.237 220.687 366.102 300.934 371.356 331.385C377.165 364.74 410.854 466.808 410.854 466.808L430.158 463.291C430.158 463.291 405.823 367.395 403.127 334.401C400.208 298.572 396.692 224.717 396.692 224.717L360.237 220.687Z" fill="#874CF0"/>
<path opacity="0.3" d="M370.119 254.001C369.063 249.581 366.644 255.14 363.837 264.772C365.963 288.593 368.743 316.194 371.398 331.385C371.981 334.79 372.871 338.918 373.983 343.587C373.01 309.593 372.982 265.939 370.119 254.001Z" fill="black"/>
<path d="M340.183 218.463C340.183 218.463 332.469 299.169 332.205 331.607C331.927 365.338 338.876 475.786 338.876 475.786H356.944C356.944 475.786 362.336 367.381 364.588 334.179C367.047 298.044 377.388 222.577 377.388 222.577L340.183 218.463Z" fill="#874CF0"/>
<path d="M406.81 460.317C406.726 460.317 409.826 467.266 409.826 467.266L431.562 463.305L430.242 456.815L406.81 460.317Z" fill="#263238"/>
<path d="M335.735 468.6C335.652 468.6 336.416 476.092 336.416 476.092H358.333L359.223 469.407L335.735 468.6Z" fill="#263238"/>
</svg>
